<svg xmlns="http://www.w3.org/2000/svg" width="32" height="32" viewBox="0 0 32 32"><path d="M0 0h1v1H0zm1 0h1v1H1zm1 0h1v1H2zm1 0h1v1H3zm1 0h1v1H4zm1 0h1v1H5zm1 0h1v1H6zm1 0h1v1H7zm1 0h1v1H8zm1 0h1v1H9zm1 0h1v1h-1zm1 0h1v1h-1zm1 0h1v1h-1zm1 0h1v1h-1zm1 0h1v1h-1zm1 0h1v1h-1zm1 0h1v1h-1zm1 0h1v1h-1zm1 0h1v1h-1zm1 0h1v1h-1zm1 0h1v1h-1zm1 0h1v1h-1zm1 0h1v1h-1zm1 0h1v1h-1zm1 0h1v1h-1zm1 0h1v1h-1zm1 0h1v1h-1zm1 0h1v1h-1zm1 0h1v1h-1zm1 0h1v1h-1zm1 0h1v1h-1zm1 0h1v1h-1zM0 1h1v1H0zm1 0h1v1H1zm1 0h1v1H2zm1 0h1v1H3zm1 0h1v1H4zm1 0h1v1H5zm1 0h1v1H6zm1 0h1v1H7zm1 0h1v1H8zm1 0h1v1H9zm1 0h1v1h-1zm1 0h1v1h-1zm1 0h1v1h-1zm1 0h1v1h-1zm1 0h1v1h-1zm1 0h1v1h-1zm1 0h1v1h-1zm1 0h1v1h-1zm1 0h1v1h-1zm1 0h1v1h-1zm1 0h1v1h-1zm1 0h1v1h-1zm1 0h1v1h-1zm1 0h1v1h-1zm1 0h1v1h-1zm1 0h1v1h-1zm1 0h1v1h-1zm1 0h1v1h-1zm1 0h1v1h-1zm1 0h1v1h-1zm1 0h1v1h-1zm1 0h1v1h-1zM0 2h1v1H0zm1 0h1v1H1zm1 0h1v1H2zm1 0h1v1H3zm1 0h1v1H4zm1 0h1v1H5zm1 0h1v1H6zm1 0h1v1H7zm1 0h1v1H8zm1 0h1v1H9zm1 0h1v1h-1zm1 0h1v1h-1zm1 0h1v1h-1zm1 0h1v1h-1zm1 0h1v1h-1zm1 0h1v1h-1zm1 0h1v1h-1zm1 0h1v1h-1zm1 0h1v1h-1zm1 0h1v1h-1zm1 0h1v1h-1zm1 0h1v1h-1zm1 0h1v1h-1zm1 0h1v1h-1zm1 0h1v1h-1zm1 0h1v1h-1zm1 0h1v1h-1zm1 0h1v1h-1zm1 0h1v1h-1zm1 0h1v1h-1zm1 0h1v1h-1zm1 0h1v1h-1zM0 3h1v1H0zm1 0h1v1H1zm1 0h1v1H2zm1 0h1v1H3zm1 0h1v1H4zm1 0h1v1H5zm1 0h1v1H6zm1 0h1v1H7zm1 0h1v1H8zm1 0h1v1H9zm1 0h1v1h-1zm1 0h1v1h-1zm1 0h1v1h-1zm1 0h1v1h-1zm1 0h1v1h-1zm1 0h1v1h-1zm1 0h1v1h-1zm1 0h1v1h-1zm1 0h1v1h-1zm1 0h1v1h-1zm1 0h1v1h-1zm1 0h1v1h-1zm1 0h1v1h-1zm1 0h1v1h-1zm1 0h1v1h-1zm1 0h1v1h-1zm1 0h1v1h-1zm1 0h1v1h-1zm1 0h1v1h-1zm1 0h1v1h-1zm1 0h1v1h-1zm1 0h1v1h-1zM0 4h1v1H0zm1 0h1v1H1zm1 0h1v1H2zm1 0h1v1H3zm1 0h1v1H4zm1 0h1v1H5zm1 0h1v1H6zm1 0h1v1H7zm1 0h1v1H8zm1 0h1v1H9zm1 0h1v1h-1zm1 0h1v1h-1z" shape-rendering="crispEdges" style="fill:#000;opacity:255"/><path d="M12 4h1v1h-1zm1 0h1v1h-1zm1 0h1v1h-1zm1 0h1v1h-1zm1 0h1v1h-1zm1 0h1v1h-1zm1 0h1v1h-1zm1 0h1v1h-1z" shape-rendering="crispEdges" style="fill:#fb6900;opacity:255"/><path d="M20 4h1v1h-1zm1 0h1v1h-1zm1 0h1v1h-1zm1 0h1v1h-1zm1 0h1v1h-1zm1 0h1v1h-1zm1 0h1v1h-1zm1 0h1v1h-1zm1 0h1v1h-1zm1 0h1v1h-1zm1 0h1v1h-1zm1 0h1v1h-1zM0 5h1v1H0zm1 0h1v1H1zm1 0h1v1H2zm1 0h1v1H3zm1 0h1v1H4zm1 0h1v1H5zm1 0h1v1H6zm1 0h1v1H7zm1 0h1v1H8zm1 0h1v1H9zm1 0h1v1h-1zm1 0h1v1h-1z" shape-rendering="crispEdges" style="fill:#000;opacity:255"/><path d="M12 5h1v1h-1zm1 0h1v1h-1zm1 0h1v1h-1zm1 0h1v1h-1zm1 0h1v1h-1zm1 0h1v1h-1zm1 0h1v1h-1zm1 0h1v1h-1z" shape-rendering="crispEdges" style="fill:#fb6900;opacity:255"/><path d="M20 5h1v1h-1zm1 0h1v1h-1zm1 0h1v1h-1zm1 0h1v1h-1zm1 0h1v1h-1zm1 0h1v1h-1zm1 0h1v1h-1zm1 0h1v1h-1zm1 0h1v1h-1zm1 0h1v1h-1zm1 0h1v1h-1zm1 0h1v1h-1zM0 6h1v1H0zm1 0h1v1H1zm1 0h1v1H2zm1 0h1v1H3zm1 0h1v1H4zm1 0h1v1H5zm1 0h1v1H6zm1 0h1v1H7zm1 0h1v1H8zm1 0h1v1H9z" shape-rendering="crispEdges" style="fill:#000;opacity:255"/><path d="M10 6h1v1h-1zm1 0h1v1h-1zm1 0h1v1h-1zm1 0h1v1h-1zm1 0h1v1h-1zm1 0h1v1h-1zm1 0h1v1h-1zm1 0h1v1h-1zm1 0h1v1h-1zm1 0h1v1h-1zm1 0h1v1h-1zm1 0h1v1h-1z" shape-rendering="crispEdges" style="fill:#fb6900;opacity:255"/><path d="M22 6h1v1h-1zm1 0h1v1h-1zm1 0h1v1h-1zm1 0h1v1h-1zm1 0h1v1h-1zm1 0h1v1h-1zm1 0h1v1h-1zm1 0h1v1h-1zm1 0h1v1h-1zm1 0h1v1h-1zM0 7h1v1H0zm1 0h1v1H1zm1 0h1v1H2zm1 0h1v1H3zm1 0h1v1H4zm1 0h1v1H5zm1 0h1v1H6zm1 0h1v1H7zm1 0h1v1H8zm1 0h1v1H9z" shape-rendering="crispEdges" style="fill:#000;opacity:255"/><path d="M10 7h1v1h-1zm1 0h1v1h-1zm1 0h1v1h-1zm1 0h1v1h-1zm1 0h1v1h-1zm1 0h1v1h-1zm1 0h1v1h-1zm1 0h1v1h-1zm1 0h1v1h-1zm1 0h1v1h-1zm1 0h1v1h-1zm1 0h1v1h-1z" shape-rendering="crispEdges" style="fill:#fb6900;opacity:255"/><path d="M22 7h1v1h-1zm1 0h1v1h-1zm1 0h1v1h-1zm1 0h1v1h-1zm1 0h1v1h-1zm1 0h1v1h-1zm1 0h1v1h-1zm1 0h1v1h-1zm1 0h1v1h-1zm1 0h1v1h-1zM0 8h1v1H0zm1 0h1v1H1zm1 0h1v1H2zm1 0h1v1H3zm1 0h1v1H4zm1 0h1v1H5zm1 0h1v1H6zm1 0h1v1H7z" shape-rendering="crispEdges" style="fill:#000;opacity:255"/><path d="M8 8h1v1H8zm1 0h1v1H9zm1 0h1v1h-1zm1 0h1v1h-1zm1 0h1v1h-1zm1 0h1v1h-1z" shape-rendering="crispEdges" style="fill:#fb6900;opacity:255"/><path d="M14 8h1v1h-1zm1 0h1v1h-1zm1 0h1v1h-1zm1 0h1v1h-1z" shape-rendering="crispEdges" style="fill:#000;opacity:255"/><path d="M18 8h1v1h-1zm1 0h1v1h-1zm1 0h1v1h-1zm1 0h1v1h-1zm1 0h1v1h-1zm1 0h1v1h-1z" shape-rendering="crispEdges" style="fill:#fb6900;opacity:255"/><path d="M24 8h1v1h-1zm1 0h1v1h-1zm1 0h1v1h-1zm1 0h1v1h-1zm1 0h1v1h-1zm1 0h1v1h-1zm1 0h1v1h-1zm1 0h1v1h-1zM0 9h1v1H0zm1 0h1v1H1zm1 0h1v1H2zm1 0h1v1H3zm1 0h1v1H4zm1 0h1v1H5zm1 0h1v1H6zm1 0h1v1H7z" shape-rendering="crispEdges" style="fill:#000;opacity:255"/><path d="M8 9h1v1H8zm1 0h1v1H9zm1 0h1v1h-1zm1 0h1v1h-1zm1 0h1v1h-1zm1 0h1v1h-1z" shape-rendering="crispEdges" style="fill:#fb6900;opacity:255"/><path d="M14 9h1v1h-1zm1 0h1v1h-1zm1 0h1v1h-1zm1 0h1v1h-1z" shape-rendering="crispEdges" style="fill:#000;opacity:255"/><path d="M18 9h1v1h-1zm1 0h1v1h-1zm1 0h1v1h-1zm1 0h1v1h-1zm1 0h1v1h-1zm1 0h1v1h-1z" shape-rendering="crispEdges" style="fill:#fb6900;opacity:255"/><path d="M24 9h1v1h-1zm1 0h1v1h-1zm1 0h1v1h-1zm1 0h1v1h-1zm1 0h1v1h-1zm1 0h1v1h-1zm1 0h1v1h-1zm1 0h1v1h-1zM0 10h1v1H0zm1 0h1v1H1zm1 0h1v1H2zm1 0h1v1H3zm1 0h1v1H4zm1 0h1v1H5z" shape-rendering="crispEdges" style="fill:#000;opacity:255"/><path d="M6 10h1v1H6zm1 0h1v1H7zm1 0h1v1H8zm1 0h1v1H9zm1 0h1v1h-1zm1 0h1v1h-1z" shape-rendering="crispEdges" style="fill:#fb6900;opacity:255"/><path d="M12 10h1v1h-1zm1 0h1v1h-1zm5 0h1v1h-1zm1 0h1v1h-1z" shape-rendering="crispEdges" style="fill:#000;opacity:255"/><path d="M20 10h1v1h-1zm1 0h1v1h-1zm1 0h1v1h-1zm1 0h1v1h-1zm1 0h1v1h-1zm1 0h1v1h-1z" shape-rendering="crispEdges" style="fill:#fb6900;opacity:255"/><path d="M26 10h1v1h-1zm1 0h1v1h-1zm1 0h1v1h-1zm1 0h1v1h-1zm1 0h1v1h-1zm1 0h1v1h-1zM0 11h1v1H0zm1 0h1v1H1zm1 0h1v1H2zm1 0h1v1H3zm1 0h1v1H4zm1 0h1v1H5z" shape-rendering="crispEdges" style="fill:#000;opacity:255"/><path d="M6 11h1v1H6zm1 0h1v1H7zm1 0h1v1H8zm1 0h1v1H9zm1 0h1v1h-1zm1 0h1v1h-1z" shape-rendering="crispEdges" style="fill:#fb6900;opacity:255"/><path d="M12 11h1v1h-1zm1 0h1v1h-1zm5 0h1v1h-1zm1 0h1v1h-1z" shape-rendering="crispEdges" style="fill:#000;opacity:255"/><path d="M20 11h1v1h-1zm1 0h1v1h-1zm1 0h1v1h-1zm1 0h1v1h-1zm1 0h1v1h-1zm1 0h1v1h-1z" shape-rendering="crispEdges" style="fill:#fb6900;opacity:255"/><path d="M26 11h1v1h-1zm1 0h1v1h-1zm1 0h1v1h-1zm1 0h1v1h-1zm1 0h1v1h-1zm1 0h1v1h-1zM0 12h1v1H0zm1 0h1v1H1zm1 0h1v1H2zm1 0h1v1H3z" shape-rendering="crispEdges" style="fill:#000;opacity:255"/><path d="M4 12h1v1H4zm1 0h1v1H5zm1 0h1v1H6zm1 0h1v1H7zm1 0h1v1H8zm1 0h1v1H9z" shape-rendering="crispEdges" style="fill:#fb6900;opacity:255"/><path d="M10 12h1v1h-1zm1 0h1v1h-1zm9 0h1v1h-1zm1 0h1v1h-1z" shape-rendering="crispEdges" style="fill:#000;opacity:255"/><path d="M22 12h1v1h-1zm1 0h1v1h-1zm1 0h1v1h-1zm1 0h1v1h-1zm1 0h1v1h-1zm1 0h1v1h-1z" shape-rendering="crispEdges" style="fill:#fb6900;opacity:255"/><path d="M28 12h1v1h-1zm1 0h1v1h-1zm1 0h1v1h-1zm1 0h1v1h-1zM0 13h1v1H0zm1 0h1v1H1zm1 0h1v1H2zm1 0h1v1H3z" shape-rendering="crispEdges" style="fill:#000;opacity:255"/><path d="M4 13h1v1H4zm1 0h1v1H5zm1 0h1v1H6zm1 0h1v1H7zm1 0h1v1H8zm1 0h1v1H9z" shape-rendering="crispEdges" style="fill:#fb6900;opacity:255"/><path d="M10 13h1v1h-1zm1 0h1v1h-1zm9 0h1v1h-1zm1 0h1v1h-1z" shape-rendering="crispEdges" style="fill:#000;opacity:255"/><path d="M22 13h1v1h-1zm1 0h1v1h-1zm1 0h1v1h-1zm1 0h1v1h-1zm1 0h1v1h-1zm1 0h1v1h-1z" shape-rendering="crispEdges" style="fill:#fb6900;opacity:255"/><path d="M28 13h1v1h-1zm1 0h1v1h-1zm1 0h1v1h-1zm1 0h1v1h-1zM0 14h1v1H0zm1 0h1v1H1zm1 0h1v1H2zm1 0h1v1H3z" shape-rendering="crispEdges" style="fill:#000;opacity:255"/><path d="M4 14h1v1H4zm1 0h1v1H5zm1 0h1v1H6zm1 0h1v1H7z" shape-rendering="crispEdges" style="fill:#fb6900;opacity:255"/><path d="M8 14h1v1H8zm1 0h1v1H9zm13 0h1v1h-1zm1 0h1v1h-1z" shape-rendering="crispEdges" style="fill:#000;opacity:255"/><path d="M24 14h1v1h-1zm1 0h1v1h-1zm1 0h1v1h-1zm1 0h1v1h-1z" shape-rendering="crispEdges" style="fill:#fb6900;opacity:255"/><path d="M28 14h1v1h-1zm1 0h1v1h-1zm1 0h1v1h-1zm1 0h1v1h-1zM0 15h1v1H0zm1 0h1v1H1zm1 0h1v1H2zm1 0h1v1H3z" shape-rendering="crispEdges" style="fill:#000;opacity:255"/><path d="M4 15h1v1H4zm1 0h1v1H5zm1 0h1v1H6zm1 0h1v1H7z" shape-rendering="crispEdges" style="fill:#fb6900;opacity:255"/><path d="M8 15h1v1H8zm1 0h1v1H9zm13 0h1v1h-1zm1 0h1v1h-1z" shape-rendering="crispEdges" style="fill:#000;opacity:255"/><path d="M24 15h1v1h-1zm1 0h1v1h-1zm1 0h1v1h-1zm1 0h1v1h-1z" shape-rendering="crispEdges" style="fill:#fb6900;opacity:255"/><path d="M28 15h1v1h-1zm1 0h1v1h-1zm1 0h1v1h-1zm1 0h1v1h-1zM0 16h1v1H0zm1 0h1v1H1zm1 0h1v1H2zm1 0h1v1H3z" shape-rendering="crispEdges" style="fill:#000;opacity:255"/><path d="M4 16h1v1H4zm1 0h1v1H5zm1 0h1v1H6zm1 0h1v1H7z" shape-rendering="crispEdges" style="fill:#fb6900;opacity:255"/><path d="M8 16h1v1H8zm1 0h1v1H9zm13 0h1v1h-1zm1 0h1v1h-1z" shape-rendering="crispEdges" style="fill:#000;opacity:255"/><path d="M24 16h1v1h-1zm1 0h1v1h-1zm1 0h1v1h-1zm1 0h1v1h-1z" shape-rendering="crispEdges" style="fill:#fb6900;opacity:255"/><path d="M28 16h1v1h-1zm1 0h1v1h-1zm1 0h1v1h-1zm1 0h1v1h-1zM0 17h1v1H0zm1 0h1v1H1zm1 0h1v1H2zm1 0h1v1H3z" shape-rendering="crispEdges" style="fill:#000;opacity:255"/><path d="M4 17h1v1H4zm1 0h1v1H5zm1 0h1v1H6zm1 0h1v1H7z" shape-rendering="crispEdges" style="fill:#fb6900;opacity:255"/><path d="M8 17h1v1H8zm1 0h1v1H9zm13 0h1v1h-1zm1 0h1v1h-1z" shape-rendering="crispEdges" style="fill:#000;opacity:255"/><path d="M24 17h1v1h-1zm1 0h1v1h-1zm1 0h1v1h-1zm1 0h1v1h-1z" shape-rendering="crispEdges" style="fill:#fb6900;opacity:255"/><path d="M28 17h1v1h-1zm1 0h1v1h-1zm1 0h1v1h-1zm1 0h1v1h-1zM0 18h1v1H0zm1 0h1v1H1zm1 0h1v1H2zm1 0h1v1H3z" shape-rendering="crispEdges" style="fill:#000;opacity:255"/><path d="M4 18h1v1H4zm1 0h1v1H5zm1 0h1v1H6zm1 0h1v1H7zm1 0h1v1H8zm1 0h1v1H9z" shape-rendering="crispEdges" style="fill:#fb6900;opacity:255"/><path d="M10 18h1v1h-1zm1 0h1v1h-1zm9 0h1v1h-1zm1 0h1v1h-1z" shape-rendering="crispEdges" style="fill:#000;opacity:255"/><path d="M22 18h1v1h-1zm1 0h1v1h-1zm1 0h1v1h-1zm1 0h1v1h-1zm1 0h1v1h-1zm1 0h1v1h-1z" shape-rendering="crispEdges" style="fill:#fb6900;opacity:255"/><path d="M28 18h1v1h-1zm1 0h1v1h-1zm1 0h1v1h-1zm1 0h1v1h-1zM0 19h1v1H0zm1 0h1v1H1zm1 0h1v1H2zm1 0h1v1H3z" shape-rendering="crispEdges" style="fill:#000;opacity:255"/><path d="M4 19h1v1H4zm1 0h1v1H5zm1 0h1v1H6zm1 0h1v1H7zm1 0h1v1H8zm1 0h1v1H9z" shape-rendering="crispEdges" style="fill:#fb6900;opacity:255"/><path d="M10 19h1v1h-1zm1 0h1v1h-1zm9 0h1v1h-1zm1 0h1v1h-1z" shape-rendering="crispEdges" style="fill:#000;opacity:255"/><path d="M22 19h1v1h-1zm1 0h1v1h-1zm1 0h1v1h-1zm1 0h1v1h-1zm1 0h1v1h-1zm1 0h1v1h-1z" shape-rendering="crispEdges" style="fill:#fb6900;opacity:255"/><path d="M28 19h1v1h-1zm1 0h1v1h-1zm1 0h1v1h-1zm1 0h1v1h-1zM0 20h1v1H0zm1 0h1v1H1zm1 0h1v1H2zm1 0h1v1H3zm1 0h1v1H4zm1 0h1v1H5z" shape-rendering="crispEdges" style="fill:#000;opacity:255"/><path d="M6 20h1v1H6zm1 0h1v1H7zm1 0h1v1H8zm1 0h1v1H9zm1 0h1v1h-1zm1 0h1v1h-1z" shape-rendering="crispEdges" style="fill:#fb6900;opacity:255"/><path d="M12 20h1v1h-1zm1 0h1v1h-1zm5 0h1v1h-1zm1 0h1v1h-1z" shape-rendering="crispEdges" style="fill:#000;opacity:255"/><path d="M20 20h1v1h-1zm1 0h1v1h-1zm1 0h1v1h-1zm1 0h1v1h-1zm1 0h1v1h-1zm1 0h1v1h-1z" shape-rendering="crispEdges" style="fill:#fb6900;opacity:255"/><path d="M26 20h1v1h-1zm1 0h1v1h-1zm1 0h1v1h-1zm1 0h1v1h-1zm1 0h1v1h-1zm1 0h1v1h-1zM0 21h1v1H0zm1 0h1v1H1zm1 0h1v1H2zm1 0h1v1H3zm1 0h1v1H4zm1 0h1v1H5z" shape-rendering="crispEdges" style="fill:#000;opacity:255"/><path d="M6 21h1v1H6zm1 0h1v1H7zm1 0h1v1H8zm1 0h1v1H9zm1 0h1v1h-1zm1 0h1v1h-1z" shape-rendering="crispEdges" style="fill:#fb6900;opacity:255"/><path d="M12 21h1v1h-1zm1 0h1v1h-1zm5 0h1v1h-1zm1 0h1v1h-1z" shape-rendering="crispEdges" style="fill:#000;opacity:255"/><path d="M20 21h1v1h-1zm1 0h1v1h-1zm1 0h1v1h-1zm1 0h1v1h-1zm1 0h1v1h-1zm1 0h1v1h-1z" shape-rendering="crispEdges" style="fill:#fb6900;opacity:255"/><path d="M26 21h1v1h-1zm1 0h1v1h-1zm1 0h1v1h-1zm1 0h1v1h-1zm1 0h1v1h-1zm1 0h1v1h-1zM0 22h1v1H0zm1 0h1v1H1zm1 0h1v1H2zm1 0h1v1H3zm1 0h1v1H4zm1 0h1v1H5zm1 0h1v1H6zm1 0h1v1H7z" shape-rendering="crispEdges" style="fill:#000;opacity:255"/><path d="M8 22h1v1H8zm1 0h1v1H9zm1 0h1v1h-1zm1 0h1v1h-1zm1 0h1v1h-1zm1 0h1v1h-1z" shape-rendering="crispEdges" style="fill:#fb6900;opacity:255"/><path d="M14 22h1v1h-1zm1 0h1v1h-1zm1 0h1v1h-1zm1 0h1v1h-1z" shape-rendering="crispEdges" style="fill:#000;opacity:255"/><path d="M18 22h1v1h-1zm1 0h1v1h-1zm1 0h1v1h-1zm1 0h1v1h-1zm1 0h1v1h-1zm1 0h1v1h-1z" shape-rendering="crispEdges" style="fill:#fb6900;opacity:255"/><path d="M24 22h1v1h-1zm1 0h1v1h-1zm1 0h1v1h-1zm1 0h1v1h-1zm1 0h1v1h-1zm1 0h1v1h-1zm1 0h1v1h-1zm1 0h1v1h-1zM0 23h1v1H0zm1 0h1v1H1zm1 0h1v1H2zm1 0h1v1H3zm1 0h1v1H4zm1 0h1v1H5zm1 0h1v1H6zm1 0h1v1H7z" shape-rendering="crispEdges" style="fill:#000;opacity:255"/><path d="M8 23h1v1H8zm1 0h1v1H9zm1 0h1v1h-1zm1 0h1v1h-1zm1 0h1v1h-1zm1 0h1v1h-1z" shape-rendering="crispEdges" style="fill:#fb6900;opacity:255"/><path d="M14 23h1v1h-1zm1 0h1v1h-1zm1 0h1v1h-1zm1 0h1v1h-1z" shape-rendering="crispEdges" style="fill:#000;opacity:255"/><path d="M18 23h1v1h-1zm1 0h1v1h-1zm1 0h1v1h-1zm1 0h1v1h-1zm1 0h1v1h-1zm1 0h1v1h-1z" shape-rendering="crispEdges" style="fill:#fb6900;opacity:255"/><path d="M24 23h1v1h-1zm1 0h1v1h-1zm1 0h1v1h-1zm1 0h1v1h-1zm1 0h1v1h-1zm1 0h1v1h-1zm1 0h1v1h-1zm1 0h1v1h-1zM0 24h1v1H0zm1 0h1v1H1zm1 0h1v1H2zm1 0h1v1H3zm1 0h1v1H4zm1 0h1v1H5zm1 0h1v1H6zm1 0h1v1H7zm1 0h1v1H8zm1 0h1v1H9z" shape-rendering="crispEdges" style="fill:#000;opacity:255"/><path d="M10 24h1v1h-1zm1 0h1v1h-1zm1 0h1v1h-1zm1 0h1v1h-1zm1 0h1v1h-1zm1 0h1v1h-1zm1 0h1v1h-1zm1 0h1v1h-1zm1 0h1v1h-1zm1 0h1v1h-1zm1 0h1v1h-1zm1 0h1v1h-1z" shape-rendering="crispEdges" style="fill:#fb6900;opacity:255"/><path d="M22 24h1v1h-1zm1 0h1v1h-1zm1 0h1v1h-1zm1 0h1v1h-1zm1 0h1v1h-1zm1 0h1v1h-1zm1 0h1v1h-1zm1 0h1v1h-1zm1 0h1v1h-1zm1 0h1v1h-1zM0 25h1v1H0zm1 0h1v1H1zm1 0h1v1H2zm1 0h1v1H3zm1 0h1v1H4zm1 0h1v1H5zm1 0h1v1H6zm1 0h1v1H7zm1 0h1v1H8zm1 0h1v1H9z" shape-rendering="crispEdges" style="fill:#000;opacity:255"/><path d="M10 25h1v1h-1zm1 0h1v1h-1zm1 0h1v1h-1zm1 0h1v1h-1zm1 0h1v1h-1zm1 0h1v1h-1zm1 0h1v1h-1zm1 0h1v1h-1zm1 0h1v1h-1zm1 0h1v1h-1zm1 0h1v1h-1zm1 0h1v1h-1z" shape-rendering="crispEdges" style="fill:#fb6900;opacity:255"/><path d="M22 25h1v1h-1zm1 0h1v1h-1zm1 0h1v1h-1zm1 0h1v1h-1zm1 0h1v1h-1zm1 0h1v1h-1zm1 0h1v1h-1zm1 0h1v1h-1zm1 0h1v1h-1zm1 0h1v1h-1zM0 26h1v1H0zm1 0h1v1H1zm1 0h1v1H2zm1 0h1v1H3zm1 0h1v1H4zm1 0h1v1H5zm1 0h1v1H6zm1 0h1v1H7zm1 0h1v1H8zm1 0h1v1H9zm1 0h1v1h-1zm1 0h1v1h-1z" shape-rendering="crispEdges" style="fill:#000;opacity:255"/><path d="M12 26h1v1h-1zm1 0h1v1h-1zm1 0h1v1h-1zm1 0h1v1h-1zm1 0h1v1h-1zm1 0h1v1h-1zm1 0h1v1h-1zm1 0h1v1h-1z" shape-rendering="crispEdges" style="fill:#fb6900;opacity:255"/><path d="M20 26h1v1h-1zm1 0h1v1h-1zm1 0h1v1h-1zm1 0h1v1h-1zm1 0h1v1h-1zm1 0h1v1h-1zm1 0h1v1h-1zm1 0h1v1h-1zm1 0h1v1h-1zm1 0h1v1h-1zm1 0h1v1h-1zm1 0h1v1h-1zM0 27h1v1H0zm1 0h1v1H1zm1 0h1v1H2zm1 0h1v1H3zm1 0h1v1H4zm1 0h1v1H5zm1 0h1v1H6zm1 0h1v1H7zm1 0h1v1H8zm1 0h1v1H9zm1 0h1v1h-1zm1 0h1v1h-1z" shape-rendering="crispEdges" style="fill:#000;opacity:255"/><path d="M12 27h1v1h-1zm1 0h1v1h-1zm1 0h1v1h-1zm1 0h1v1h-1zm1 0h1v1h-1zm1 0h1v1h-1zm1 0h1v1h-1zm1 0h1v1h-1z" shape-rendering="crispEdges" style="fill:#fb6900;opacity:255"/><path d="M20 27h1v1h-1zm1 0h1v1h-1zm1 0h1v1h-1zm1 0h1v1h-1zm1 0h1v1h-1zm1 0h1v1h-1zm1 0h1v1h-1zm1 0h1v1h-1zm1 0h1v1h-1zm1 0h1v1h-1zm1 0h1v1h-1zm1 0h1v1h-1zM0 28h1v1H0zm1 0h1v1H1zm1 0h1v1H2zm1 0h1v1H3zm1 0h1v1H4zm1 0h1v1H5zm1 0h1v1H6zm1 0h1v1H7zm1 0h1v1H8zm1 0h1v1H9zm1 0h1v1h-1zm1 0h1v1h-1zm1 0h1v1h-1zm1 0h1v1h-1zm1 0h1v1h-1zm1 0h1v1h-1zm1 0h1v1h-1zm1 0h1v1h-1zm1 0h1v1h-1zm1 0h1v1h-1zm1 0h1v1h-1zm1 0h1v1h-1zm1 0h1v1h-1zm1 0h1v1h-1zm1 0h1v1h-1zm1 0h1v1h-1zm1 0h1v1h-1zm1 0h1v1h-1zm1 0h1v1h-1zm1 0h1v1h-1zm1 0h1v1h-1zm1 0h1v1h-1zM0 29h1v1H0zm1 0h1v1H1zm1 0h1v1H2zm1 0h1v1H3zm1 0h1v1H4zm1 0h1v1H5zm1 0h1v1H6zm1 0h1v1H7zm1 0h1v1H8zm1 0h1v1H9zm1 0h1v1h-1zm1 0h1v1h-1zm1 0h1v1h-1zm1 0h1v1h-1zm1 0h1v1h-1zm1 0h1v1h-1zm1 0h1v1h-1zm1 0h1v1h-1zm1 0h1v1h-1zm1 0h1v1h-1zm1 0h1v1h-1zm1 0h1v1h-1zm1 0h1v1h-1zm1 0h1v1h-1zm1 0h1v1h-1zm1 0h1v1h-1zm1 0h1v1h-1zm1 0h1v1h-1zm1 0h1v1h-1zm1 0h1v1h-1zm1 0h1v1h-1zm1 0h1v1h-1zM0 30h1v1H0zm1 0h1v1H1zm1 0h1v1H2zm1 0h1v1H3zm1 0h1v1H4zm1 0h1v1H5zm1 0h1v1H6zm1 0h1v1H7zm1 0h1v1H8zm1 0h1v1H9zm1 0h1v1h-1zm1 0h1v1h-1zm1 0h1v1h-1zm1 0h1v1h-1zm1 0h1v1h-1zm1 0h1v1h-1zm1 0h1v1h-1zm1 0h1v1h-1zm1 0h1v1h-1zm1 0h1v1h-1zm1 0h1v1h-1zm1 0h1v1h-1zm1 0h1v1h-1zm1 0h1v1h-1zm1 0h1v1h-1zm1 0h1v1h-1zm1 0h1v1h-1zm1 0h1v1h-1zm1 0h1v1h-1zm1 0h1v1h-1zm1 0h1v1h-1zm1 0h1v1h-1zM0 31h1v1H0zm1 0h1v1H1zm1 0h1v1H2zm1 0h1v1H3zm1 0h1v1H4zm1 0h1v1H5zm1 0h1v1H6zm1 0h1v1H7zm1 0h1v1H8zm1 0h1v1H9zm1 0h1v1h-1zm1 0h1v1h-1zm1 0h1v1h-1zm1 0h1v1h-1zm1 0h1v1h-1zm1 0h1v1h-1zm1 0h1v1h-1zm1 0h1v1h-1zm1 0h1v1h-1zm1 0h1v1h-1zm1 0h1v1h-1zm1 0h1v1h-1zm1 0h1v1h-1zm1 0h1v1h-1zm1 0h1v1h-1zm1 0h1v1h-1zm1 0h1v1h-1zm1 0h1v1h-1zm1 0h1v1h-1zm1 0h1v1h-1zm1 0h1v1h-1zm1 0h1v1h-1z" shape-rendering="crispEdges" style="fill:#000;opacity:255"/></svg>