<svg xmlns="http://www.w3.org/2000/svg" width="4" height="46" viewBox="0 0 4 46"><path d="M0 0h1v1H0zm1 0h1v1H1zm1 0h1v1H2zm1 0h1v1H3zM0 1h1v1H0zm1 0h1v1H1zm1 0h1v1H2zm1 0h1v1H3zM0 2h1v1H0zm1 0h1v1H1zm1 0h1v1H2zm1 0h1v1H3zM0 3h1v1H0zm1 0h1v1H1zm1 0h1v1H2zm1 0h1v1H3zM0 4h1v1H0zm1 0h1v1H1zm1 0h1v1H2zm1 0h1v1H3zM0 5h1v1H0zm1 0h1v1H1zm1 0h1v1H2zm1 0h1v1H3z" shape-rendering="crispEdges" style="fill:#7b7b7b;opacity:255"/><path d="M0 6h1v1H0zm1 0h1v1H1zm1 0h1v1H2zm1 0h1v1H3zM0 7h1v1H0zm1 0h1v1H1zm1 0h1v1H2zm1 0h1v1H3zM0 8h1v1H0zm1 0h1v1H1zm1 0h1v1H2zm1 0h1v1H3zM0 9h1v1H0zm1 0h1v1H1zm1 0h1v1H2zm1 0h1v1H3zm-3 1h1v1H0zm1 0h1v1H1zm1 0h1v1H2zm1 0h1v1H3zm-3 1h1v1H0zm1 0h1v1H1zm1 0h1v1H2zm1 0h1v1H3z" shape-rendering="crispEdges" style="fill:#838383;opacity:255"/><path d="M0 12h1v1H0zm1 0h1v1H1zm1 0h1v1H2zm1 0h1v1H3zm-3 1h1v1H0zm1 0h1v1H1zm1 0h1v1H2zm1 0h1v1H3zm-3 1h1v1H0zm1 0h1v1H1zm1 0h1v1H2zm1 0h1v1H3zm-3 1h1v1H0zm1 0h1v1H1zm1 0h1v1H2zm1 0h1v1H3zm-3 1h1v1H0zm1 0h1v1H1z" shape-rendering="crispEdges" style="fill:#8a8a8a;opacity:255"/><path d="M2 16h1v1H2zm1 0h1v1H3z" shape-rendering="crispEdges" style="fill:#9d9d9d;opacity:255"/><path d="M0 17h1v1H0zm1 0h1v1H1z" shape-rendering="crispEdges" style="fill:#8a8a8a;opacity:255"/><path d="M2 17h1v1H2zm1 0h1v1H3zm-3 1h1v1H0zm1 0h1v1H1z" shape-rendering="crispEdges" style="fill:#9d9d9d;opacity:255"/><path d="M2 18h1v1H2zm1 0h1v1H3z" shape-rendering="crispEdges" style="fill:#8a8a8a;opacity:255"/><path d="M0 19h1v1H0zm1 0h1v1H1z" shape-rendering="crispEdges" style="fill:#9d9d9d;opacity:255"/><path d="M2 19h1v1H2zm1 0h1v1H3z" shape-rendering="crispEdges" style="fill:#8a8a8a;opacity:255"/><path d="M0 20h1v1H0zm1 0h1v1H1zm1 0h1v1H2zm1 0h1v1H3zm-3 1h1v1H0zm1 0h1v1H1zm1 0h1v1H2zm1 0h1v1H3zm-3 1h1v1H0zm1 0h1v1H1zm1 0h1v1H2zm1 0h1v1H3zm-3 1h1v1H0zm1 0h1v1H1zm1 0h1v1H2zm1 0h1v1H3z" shape-rendering="crispEdges" style="fill:#9d9d9d;opacity:255"/><path d="M0 24h1v1H0zm1 0h1v1H1z" shape-rendering="crispEdges" style="fill:#b4b4b4;opacity:255"/><path d="M2 24h1v1H2zm1 0h1v1H3z" shape-rendering="crispEdges" style="fill:#9d9d9d;opacity:255"/><path d="M0 25h1v1H0zm1 0h1v1H1z" shape-rendering="crispEdges" style="fill:#b4b4b4;opacity:255"/><path d="M2 25h1v1H2zm1 0h1v1H3zm-3 1h1v1H0zm1 0h1v1H1z" shape-rendering="crispEdges" style="fill:#9d9d9d;opacity:255"/><path d="M2 26h1v1H2zm1 0h1v1H3z" shape-rendering="crispEdges" style="fill:#b4b4b4;opacity:255"/><path d="M0 27h1v1H0zm1 0h1v1H1z" shape-rendering="crispEdges" style="fill:#9d9d9d;opacity:255"/><path d="M2 27h1v1H2zm1 0h1v1H3zm-3 1h1v1H0zm1 0h1v1H1z" shape-rendering="crispEdges" style="fill:#b4b4b4;opacity:255"/><path d="M2 28h1v1H2zm1 0h1v1H3z" shape-rendering="crispEdges" style="fill:#9d9d9d;opacity:255"/><path d="M0 29h1v1H0zm1 0h1v1H1z" shape-rendering="crispEdges" style="fill:#b4b4b4;opacity:255"/><path d="M2 29h1v1H2zm1 0h1v1H3z" shape-rendering="crispEdges" style="fill:#9d9d9d;opacity:255"/><path d="M0 30h1v1H0zm1 0h1v1H1zm1 0h1v1H2zm1 0h1v1H3zm-3 1h1v1H0zm1 0h1v1H1zm1 0h1v1H2zm1 0h1v1H3zm-3 1h1v1H0zm1 0h1v1H1zm1 0h1v1H2zm1 0h1v1H3zm-3 1h1v1H0zm1 0h1v1H1zm1 0h1v1H2zm1 0h1v1H3zm-3 1h1v1H0zm1 0h1v1H1z" shape-rendering="crispEdges" style="fill:#b4b4b4;opacity:255"/><path d="M2 34h1v1H2zm1 0h1v1H3z" shape-rendering="crispEdges" style="fill:#c7c7c7;opacity:255"/><path d="M0 35h1v1H0zm1 0h1v1H1z" shape-rendering="crispEdges" style="fill:#b4b4b4;opacity:255"/><path d="M2 35h1v1H2zm1 0h1v1H3zm-3 1h1v1H0zm1 0h1v1H1z" shape-rendering="crispEdges" style="fill:#c7c7c7;opacity:255"/><path d="M2 36h1v1H2zm1 0h1v1H3z" shape-rendering="crispEdges" style="fill:#b4b4b4;opacity:255"/><path d="M0 37h1v1H0zm1 0h1v1H1z" shape-rendering="crispEdges" style="fill:#c7c7c7;opacity:255"/><path d="M2 37h1v1H2zm1 0h1v1H3z" shape-rendering="crispEdges" style="fill:#b4b4b4;opacity:255"/><path d="M0 38h1v1H0zm1 0h1v1H1zm1 0h1v1H2zm1 0h1v1H3zm-3 1h1v1H0zm1 0h1v1H1zm1 0h1v1H2zm1 0h1v1H3zm-3 1h1v1H0zm1 0h1v1H1zm1 0h1v1H2zm1 0h1v1H3zm-3 1h1v1H0zm1 0h1v1H1zm1 0h1v1H2zm1 0h1v1H3z" shape-rendering="crispEdges" style="fill:#c7c7c7;opacity:255"/><path d="M0 42h1v1H0zm1 0h1v1H1z" shape-rendering="crispEdges" style="fill:#d9d9d9;opacity:255"/><path d="M2 42h1v1H2zm1 0h1v1H3z" shape-rendering="crispEdges" style="fill:#c7c7c7;opacity:255"/><path d="M0 43h1v1H0zm1 0h1v1H1z" shape-rendering="crispEdges" style="fill:#d9d9d9;opacity:255"/><path d="M2 43h1v1H2zm1 0h1v1H3zm-3 1h1v1H0zm1 0h1v1H1z" shape-rendering="crispEdges" style="fill:#c7c7c7;opacity:255"/><path d="M2 44h1v1H2zm1 0h1v1H3z" shape-rendering="crispEdges" style="fill:#d9d9d9;opacity:255"/><path d="M0 45h1v1H0zm1 0h1v1H1z" shape-rendering="crispEdges" style="fill:#c7c7c7;opacity:255"/><path d="M2 45h1v1H2zm1 0h1v1H3z" shape-rendering="crispEdges" style="fill:#d9d9d9;opacity:255"/></svg>