<svg xmlns="http://www.w3.org/2000/svg" width="32" height="32" viewBox="0 0 32 32"><path d="M0 0h1v1H0zm1 0h1v1H1zm1 0h1v1H2zm1 0h1v1H3zm1 0h1v1H4zm1 0h1v1H5zm1 0h1v1H6zm1 0h1v1H7zm1 0h1v1H8zm1 0h1v1H9zm1 0h1v1h-1zm1 0h1v1h-1zm1 0h1v1h-1zm1 0h1v1h-1zm1 0h1v1h-1zm1 0h1v1h-1zm1 0h1v1h-1zm1 0h1v1h-1zm1 0h1v1h-1zm1 0h1v1h-1zm1 0h1v1h-1zm1 0h1v1h-1zm1 0h1v1h-1zm1 0h1v1h-1zm1 0h1v1h-1zm1 0h1v1h-1zm1 0h1v1h-1zm1 0h1v1h-1zm1 0h1v1h-1zm1 0h1v1h-1zm1 0h1v1h-1zm1 0h1v1h-1zM0 1h1v1H0zm1 0h1v1H1zm1 0h1v1H2zm1 0h1v1H3zm1 0h1v1H4zm1 0h1v1H5zm1 0h1v1H6zm1 0h1v1H7zm1 0h1v1H8zm1 0h1v1H9zm1 0h1v1h-1zm1 0h1v1h-1zm1 0h1v1h-1zm1 0h1v1h-1zm1 0h1v1h-1zm1 0h1v1h-1zm1 0h1v1h-1zm1 0h1v1h-1zm1 0h1v1h-1zm1 0h1v1h-1zm1 0h1v1h-1zm1 0h1v1h-1zm1 0h1v1h-1zm1 0h1v1h-1zm1 0h1v1h-1zm1 0h1v1h-1zm1 0h1v1h-1zm1 0h1v1h-1zm1 0h1v1h-1zm1 0h1v1h-1zm1 0h1v1h-1zm1 0h1v1h-1zM0 2h1v1H0zm1 0h1v1H1z" shape-rendering="crispEdges" style="fill:#a2a2a2;opacity:255"/><path d="M2 2h1v1H2zm1 0h1v1H3zm1 0h1v1H4zm1 0h1v1H5zm1 0h1v1H6zm1 0h1v1H7zm1 0h1v1H8zm1 0h1v1H9zm1 0h1v1h-1zm1 0h1v1h-1zm1 0h1v1h-1zm1 0h1v1h-1zm1 0h1v1h-1zm1 0h1v1h-1zm1 0h1v1h-1zm1 0h1v1h-1zm1 0h1v1h-1zm1 0h1v1h-1zm1 0h1v1h-1zm1 0h1v1h-1zm1 0h1v1h-1zm1 0h1v1h-1zm1 0h1v1h-1zm1 0h1v1h-1zm1 0h1v1h-1zm1 0h1v1h-1zm1 0h1v1h-1zm1 0h1v1h-1z" shape-rendering="crispEdges" style="fill:#f3f3f3;opacity:255"/><path d="M30 2h1v1h-1zm1 0h1v1h-1zM0 3h1v1H0zm1 0h1v1H1z" shape-rendering="crispEdges" style="fill:#a2a2a2;opacity:255"/><path d="M2 3h1v1H2zm1 0h1v1H3zm1 0h1v1H4zm1 0h1v1H5zm1 0h1v1H6zm1 0h1v1H7zm1 0h1v1H8zm1 0h1v1H9zm1 0h1v1h-1zm1 0h1v1h-1zm1 0h1v1h-1zm1 0h1v1h-1zm1 0h1v1h-1zm1 0h1v1h-1zm1 0h1v1h-1zm1 0h1v1h-1zm1 0h1v1h-1zm1 0h1v1h-1zm1 0h1v1h-1zm1 0h1v1h-1zm1 0h1v1h-1zm1 0h1v1h-1zm1 0h1v1h-1zm1 0h1v1h-1zm1 0h1v1h-1zm1 0h1v1h-1zm1 0h1v1h-1zm1 0h1v1h-1z" shape-rendering="crispEdges" style="fill:#f3f3f3;opacity:255"/><path d="M30 3h1v1h-1zm1 0h1v1h-1zM0 4h1v1H0zm1 0h1v1H1z" shape-rendering="crispEdges" style="fill:#a2a2a2;opacity:255"/><path d="M2 4h1v1H2zm1 0h1v1H3z" shape-rendering="crispEdges" style="fill:#f3f3f3;opacity:255"/><path d="M4 4h1v1H4zm1 0h1v1H5zm1 0h1v1H6zm1 0h1v1H7zm1 0h1v1H8zm1 0h1v1H9zm1 0h1v1h-1zm1 0h1v1h-1zm1 0h1v1h-1zm1 0h1v1h-1zm1 0h1v1h-1zm1 0h1v1h-1zm1 0h1v1h-1zm1 0h1v1h-1zm1 0h1v1h-1zm1 0h1v1h-1zm1 0h1v1h-1zm1 0h1v1h-1zm1 0h1v1h-1zm1 0h1v1h-1zm1 0h1v1h-1zm1 0h1v1h-1zm1 0h1v1h-1zm1 0h1v1h-1zm1 0h1v1h-1zm1 0h1v1h-1z" shape-rendering="crispEdges" style="fill:#e3e3e3;opacity:255"/><path d="M30 4h1v1h-1zm1 0h1v1h-1zM0 5h1v1H0zm1 0h1v1H1z" shape-rendering="crispEdges" style="fill:#a2a2a2;opacity:255"/><path d="M2 5h1v1H2zm1 0h1v1H3z" shape-rendering="crispEdges" style="fill:#f3f3f3;opacity:255"/><path d="M4 5h1v1H4zm1 0h1v1H5zm1 0h1v1H6zm1 0h1v1H7zm1 0h1v1H8zm1 0h1v1H9zm1 0h1v1h-1zm1 0h1v1h-1zm1 0h1v1h-1zm1 0h1v1h-1zm1 0h1v1h-1zm1 0h1v1h-1zm1 0h1v1h-1zm1 0h1v1h-1zm1 0h1v1h-1zm1 0h1v1h-1zm1 0h1v1h-1zm1 0h1v1h-1zm1 0h1v1h-1zm1 0h1v1h-1zm1 0h1v1h-1zm1 0h1v1h-1zm1 0h1v1h-1zm1 0h1v1h-1zm1 0h1v1h-1zm1 0h1v1h-1z" shape-rendering="crispEdges" style="fill:#e3e3e3;opacity:255"/><path d="M30 5h1v1h-1zm1 0h1v1h-1zM0 6h1v1H0zm1 0h1v1H1z" shape-rendering="crispEdges" style="fill:#a2a2a2;opacity:255"/><path d="M2 6h1v1H2zm1 0h1v1H3z" shape-rendering="crispEdges" style="fill:#f3f3f3;opacity:255"/><path d="M4 6h1v1H4zm1 0h1v1H5zm1 0h1v1H6zm1 0h1v1H7zm1 0h1v1H8zm1 0h1v1H9zm1 0h1v1h-1zm1 0h1v1h-1zm1 0h1v1h-1zm1 0h1v1h-1zm1 0h1v1h-1zm1 0h1v1h-1zm1 0h1v1h-1zm1 0h1v1h-1zm1 0h1v1h-1zm1 0h1v1h-1zm1 0h1v1h-1zm1 0h1v1h-1zm1 0h1v1h-1zm1 0h1v1h-1zm1 0h1v1h-1zm1 0h1v1h-1zm1 0h1v1h-1zm1 0h1v1h-1zm1 0h1v1h-1zm1 0h1v1h-1z" shape-rendering="crispEdges" style="fill:#e3e3e3;opacity:255"/><path d="M30 6h1v1h-1zm1 0h1v1h-1zM0 7h1v1H0zm1 0h1v1H1z" shape-rendering="crispEdges" style="fill:#a2a2a2;opacity:255"/><path d="M2 7h1v1H2zm1 0h1v1H3z" shape-rendering="crispEdges" style="fill:#f3f3f3;opacity:255"/><path d="M4 7h1v1H4zm1 0h1v1H5zm1 0h1v1H6zm1 0h1v1H7zm1 0h1v1H8zm1 0h1v1H9zm1 0h1v1h-1zm1 0h1v1h-1zm1 0h1v1h-1zm1 0h1v1h-1zm1 0h1v1h-1zm1 0h1v1h-1zm1 0h1v1h-1zm1 0h1v1h-1zm1 0h1v1h-1zm1 0h1v1h-1zm1 0h1v1h-1zm1 0h1v1h-1zm1 0h1v1h-1zm1 0h1v1h-1zm1 0h1v1h-1zm1 0h1v1h-1zm1 0h1v1h-1zm1 0h1v1h-1zm1 0h1v1h-1zm1 0h1v1h-1z" shape-rendering="crispEdges" style="fill:#e3e3e3;opacity:255"/><path d="M30 7h1v1h-1zm1 0h1v1h-1zM0 8h1v1H0zm1 0h1v1H1z" shape-rendering="crispEdges" style="fill:#a2a2a2;opacity:255"/><path d="M2 8h1v1H2zm1 0h1v1H3z" shape-rendering="crispEdges" style="fill:#f3f3f3;opacity:255"/><path d="M4 8h1v1H4zm1 0h1v1H5z" shape-rendering="crispEdges" style="fill:#e3e3e3;opacity:255"/><path d="M6 8h1v1H6zm1 0h1v1H7z" shape-rendering="crispEdges" style="fill:#d3d3d3;opacity:255"/><path d="M8 8h1v1H8zm1 0h1v1H9z" shape-rendering="crispEdges" style="fill:#e3e3e3;opacity:255"/><path d="M10 8h1v1h-1zm1 0h1v1h-1z" shape-rendering="crispEdges" style="fill:#d3d3d3;opacity:255"/><path d="M12 8h1v1h-1zm1 0h1v1h-1z" shape-rendering="crispEdges" style="fill:#e3e3e3;opacity:255"/><path d="M14 8h1v1h-1zm1 0h1v1h-1z" shape-rendering="crispEdges" style="fill:#d3d3d3;opacity:255"/><path d="M16 8h1v1h-1zm1 0h1v1h-1z" shape-rendering="crispEdges" style="fill:#e3e3e3;opacity:255"/><path d="M18 8h1v1h-1zm1 0h1v1h-1z" shape-rendering="crispEdges" style="fill:#d3d3d3;opacity:255"/><path d="M20 8h1v1h-1zm1 0h1v1h-1z" shape-rendering="crispEdges" style="fill:#e3e3e3;opacity:255"/><path d="M22 8h1v1h-1zm1 0h1v1h-1z" shape-rendering="crispEdges" style="fill:#d3d3d3;opacity:255"/><path d="M24 8h1v1h-1zm1 0h1v1h-1z" shape-rendering="crispEdges" style="fill:#e3e3e3;opacity:255"/><path d="M26 8h1v1h-1zm1 0h1v1h-1z" shape-rendering="crispEdges" style="fill:#d3d3d3;opacity:255"/><path d="M28 8h1v1h-1zm1 0h1v1h-1z" shape-rendering="crispEdges" style="fill:#e3e3e3;opacity:255"/><path d="M30 8h1v1h-1zm1 0h1v1h-1zM0 9h1v1H0zm1 0h1v1H1z" shape-rendering="crispEdges" style="fill:#a2a2a2;opacity:255"/><path d="M2 9h1v1H2zm1 0h1v1H3z" shape-rendering="crispEdges" style="fill:#f3f3f3;opacity:255"/><path d="M4 9h1v1H4zm1 0h1v1H5z" shape-rendering="crispEdges" style="fill:#e3e3e3;opacity:255"/><path d="M6 9h1v1H6zm1 0h1v1H7z" shape-rendering="crispEdges" style="fill:#d3d3d3;opacity:255"/><path d="M8 9h1v1H8zm1 0h1v1H9z" shape-rendering="crispEdges" style="fill:#e3e3e3;opacity:255"/><path d="M10 9h1v1h-1zm1 0h1v1h-1z" shape-rendering="crispEdges" style="fill:#d3d3d3;opacity:255"/><path d="M12 9h1v1h-1zm1 0h1v1h-1z" shape-rendering="crispEdges" style="fill:#e3e3e3;opacity:255"/><path d="M14 9h1v1h-1zm1 0h1v1h-1z" shape-rendering="crispEdges" style="fill:#d3d3d3;opacity:255"/><path d="M16 9h1v1h-1zm1 0h1v1h-1z" shape-rendering="crispEdges" style="fill:#e3e3e3;opacity:255"/><path d="M18 9h1v1h-1zm1 0h1v1h-1z" shape-rendering="crispEdges" style="fill:#d3d3d3;opacity:255"/><path d="M20 9h1v1h-1zm1 0h1v1h-1z" shape-rendering="crispEdges" style="fill:#e3e3e3;opacity:255"/><path d="M22 9h1v1h-1zm1 0h1v1h-1z" shape-rendering="crispEdges" style="fill:#d3d3d3;opacity:255"/><path d="M24 9h1v1h-1zm1 0h1v1h-1z" shape-rendering="crispEdges" style="fill:#e3e3e3;opacity:255"/><path d="M26 9h1v1h-1zm1 0h1v1h-1z" shape-rendering="crispEdges" style="fill:#d3d3d3;opacity:255"/><path d="M28 9h1v1h-1zm1 0h1v1h-1z" shape-rendering="crispEdges" style="fill:#e3e3e3;opacity:255"/><path d="M30 9h1v1h-1zm1 0h1v1h-1zM0 10h1v1H0zm1 0h1v1H1z" shape-rendering="crispEdges" style="fill:#a2a2a2;opacity:255"/><path d="M2 10h1v1H2zm1 0h1v1H3z" shape-rendering="crispEdges" style="fill:#f3f3f3;opacity:255"/><path d="M4 10h1v1H4zm1 0h1v1H5z" shape-rendering="crispEdges" style="fill:#d3d3d3;opacity:255"/><path d="M6 10h1v1H6zm1 0h1v1H7z" shape-rendering="crispEdges" style="fill:#e3e3e3;opacity:255"/><path d="M8 10h1v1H8zm1 0h1v1H9z" shape-rendering="crispEdges" style="fill:#d3d3d3;opacity:255"/><path d="M10 10h1v1h-1zm1 0h1v1h-1z" shape-rendering="crispEdges" style="fill:#e3e3e3;opacity:255"/><path d="M12 10h1v1h-1zm1 0h1v1h-1z" shape-rendering="crispEdges" style="fill:#d3d3d3;opacity:255"/><path d="M14 10h1v1h-1zm1 0h1v1h-1z" shape-rendering="crispEdges" style="fill:#e3e3e3;opacity:255"/><path d="M16 10h1v1h-1zm1 0h1v1h-1z" shape-rendering="crispEdges" style="fill:#d3d3d3;opacity:255"/><path d="M18 10h1v1h-1zm1 0h1v1h-1z" shape-rendering="crispEdges" style="fill:#e3e3e3;opacity:255"/><path d="M20 10h1v1h-1zm1 0h1v1h-1z" shape-rendering="crispEdges" style="fill:#d3d3d3;opacity:255"/><path d="M22 10h1v1h-1zm1 0h1v1h-1z" shape-rendering="crispEdges" style="fill:#e3e3e3;opacity:255"/><path d="M24 10h1v1h-1zm1 0h1v1h-1z" shape-rendering="crispEdges" style="fill:#d3d3d3;opacity:255"/><path d="M26 10h1v1h-1zm1 0h1v1h-1z" shape-rendering="crispEdges" style="fill:#e3e3e3;opacity:255"/><path d="M28 10h1v1h-1zm1 0h1v1h-1z" shape-rendering="crispEdges" style="fill:#d3d3d3;opacity:255"/><path d="M30 10h1v1h-1zm1 0h1v1h-1zM0 11h1v1H0zm1 0h1v1H1z" shape-rendering="crispEdges" style="fill:#a2a2a2;opacity:255"/><path d="M2 11h1v1H2zm1 0h1v1H3z" shape-rendering="crispEdges" style="fill:#f3f3f3;opacity:255"/><path d="M4 11h1v1H4zm1 0h1v1H5z" shape-rendering="crispEdges" style="fill:#d3d3d3;opacity:255"/><path d="M6 11h1v1H6zm1 0h1v1H7z" shape-rendering="crispEdges" style="fill:#e3e3e3;opacity:255"/><path d="M8 11h1v1H8zm1 0h1v1H9z" shape-rendering="crispEdges" style="fill:#d3d3d3;opacity:255"/><path d="M10 11h1v1h-1zm1 0h1v1h-1z" shape-rendering="crispEdges" style="fill:#e3e3e3;opacity:255"/><path d="M12 11h1v1h-1zm1 0h1v1h-1z" shape-rendering="crispEdges" style="fill:#d3d3d3;opacity:255"/><path d="M14 11h1v1h-1zm1 0h1v1h-1z" shape-rendering="crispEdges" style="fill:#e3e3e3;opacity:255"/><path d="M16 11h1v1h-1zm1 0h1v1h-1z" shape-rendering="crispEdges" style="fill:#d3d3d3;opacity:255"/><path d="M18 11h1v1h-1zm1 0h1v1h-1z" shape-rendering="crispEdges" style="fill:#e3e3e3;opacity:255"/><path d="M20 11h1v1h-1zm1 0h1v1h-1z" shape-rendering="crispEdges" style="fill:#d3d3d3;opacity:255"/><path d="M22 11h1v1h-1zm1 0h1v1h-1z" shape-rendering="crispEdges" style="fill:#e3e3e3;opacity:255"/><path d="M24 11h1v1h-1zm1 0h1v1h-1z" shape-rendering="crispEdges" style="fill:#d3d3d3;opacity:255"/><path d="M26 11h1v1h-1zm1 0h1v1h-1z" shape-rendering="crispEdges" style="fill:#e3e3e3;opacity:255"/><path d="M28 11h1v1h-1zm1 0h1v1h-1z" shape-rendering="crispEdges" style="fill:#d3d3d3;opacity:255"/><path d="M30 11h1v1h-1zm1 0h1v1h-1zM0 12h1v1H0zm1 0h1v1H1z" shape-rendering="crispEdges" style="fill:#a2a2a2;opacity:255"/><path d="M2 12h1v1H2zm1 0h1v1H3z" shape-rendering="crispEdges" style="fill:#f3f3f3;opacity:255"/><path d="M4 12h1v1H4zm1 0h1v1H5zm1 0h1v1H6zm1 0h1v1H7zm1 0h1v1H8zm1 0h1v1H9zm1 0h1v1h-1zm1 0h1v1h-1zm1 0h1v1h-1zm1 0h1v1h-1zm1 0h1v1h-1zm1 0h1v1h-1zm1 0h1v1h-1zm1 0h1v1h-1zm1 0h1v1h-1zm1 0h1v1h-1zm1 0h1v1h-1zm1 0h1v1h-1zm1 0h1v1h-1zm1 0h1v1h-1zm1 0h1v1h-1zm1 0h1v1h-1zm1 0h1v1h-1zm1 0h1v1h-1zm1 0h1v1h-1zm1 0h1v1h-1z" shape-rendering="crispEdges" style="fill:#d3d3d3;opacity:255"/><path d="M30 12h1v1h-1zm1 0h1v1h-1zM0 13h1v1H0zm1 0h1v1H1z" shape-rendering="crispEdges" style="fill:#a2a2a2;opacity:255"/><path d="M2 13h1v1H2zm1 0h1v1H3z" shape-rendering="crispEdges" style="fill:#f3f3f3;opacity:255"/><path d="M4 13h1v1H4zm1 0h1v1H5zm1 0h1v1H6zm1 0h1v1H7zm1 0h1v1H8zm1 0h1v1H9zm1 0h1v1h-1zm1 0h1v1h-1zm1 0h1v1h-1zm1 0h1v1h-1zm1 0h1v1h-1zm1 0h1v1h-1zm1 0h1v1h-1zm1 0h1v1h-1zm1 0h1v1h-1zm1 0h1v1h-1zm1 0h1v1h-1zm1 0h1v1h-1zm1 0h1v1h-1zm1 0h1v1h-1zm1 0h1v1h-1zm1 0h1v1h-1zm1 0h1v1h-1zm1 0h1v1h-1zm1 0h1v1h-1zm1 0h1v1h-1z" shape-rendering="crispEdges" style="fill:#d3d3d3;opacity:255"/><path d="M30 13h1v1h-1zm1 0h1v1h-1zM0 14h1v1H0zm1 0h1v1H1z" shape-rendering="crispEdges" style="fill:#a2a2a2;opacity:255"/><path d="M2 14h1v1H2zm1 0h1v1H3z" shape-rendering="crispEdges" style="fill:#f3f3f3;opacity:255"/><path d="M4 14h1v1H4zm1 0h1v1H5z" shape-rendering="crispEdges" style="fill:#d3d3d3;opacity:255"/><path d="M6 14h1v1H6zm1 0h1v1H7z" shape-rendering="crispEdges" style="fill:#c3c3c3;opacity:255"/><path d="M8 14h1v1H8zm1 0h1v1H9z" shape-rendering="crispEdges" style="fill:#d3d3d3;opacity:255"/><path d="M10 14h1v1h-1zm1 0h1v1h-1z" shape-rendering="crispEdges" style="fill:#c3c3c3;opacity:255"/><path d="M12 14h1v1h-1zm1 0h1v1h-1z" shape-rendering="crispEdges" style="fill:#d3d3d3;opacity:255"/><path d="M14 14h1v1h-1zm1 0h1v1h-1z" shape-rendering="crispEdges" style="fill:#c3c3c3;opacity:255"/><path d="M16 14h1v1h-1zm1 0h1v1h-1z" shape-rendering="crispEdges" style="fill:#d3d3d3;opacity:255"/><path d="M18 14h1v1h-1zm1 0h1v1h-1z" shape-rendering="crispEdges" style="fill:#c3c3c3;opacity:255"/><path d="M20 14h1v1h-1zm1 0h1v1h-1z" shape-rendering="crispEdges" style="fill:#d3d3d3;opacity:255"/><path d="M22 14h1v1h-1zm1 0h1v1h-1z" shape-rendering="crispEdges" style="fill:#c3c3c3;opacity:255"/><path d="M24 14h1v1h-1zm1 0h1v1h-1z" shape-rendering="crispEdges" style="fill:#d3d3d3;opacity:255"/><path d="M26 14h1v1h-1zm1 0h1v1h-1z" shape-rendering="crispEdges" style="fill:#c3c3c3;opacity:255"/><path d="M28 14h1v1h-1zm1 0h1v1h-1z" shape-rendering="crispEdges" style="fill:#d3d3d3;opacity:255"/><path d="M30 14h1v1h-1zm1 0h1v1h-1zM0 15h1v1H0zm1 0h1v1H1z" shape-rendering="crispEdges" style="fill:#a2a2a2;opacity:255"/><path d="M2 15h1v1H2zm1 0h1v1H3z" shape-rendering="crispEdges" style="fill:#f3f3f3;opacity:255"/><path d="M4 15h1v1H4zm1 0h1v1H5z" shape-rendering="crispEdges" style="fill:#d3d3d3;opacity:255"/><path d="M6 15h1v1H6zm1 0h1v1H7z" shape-rendering="crispEdges" style="fill:#c3c3c3;opacity:255"/><path d="M8 15h1v1H8zm1 0h1v1H9z" shape-rendering="crispEdges" style="fill:#d3d3d3;opacity:255"/><path d="M10 15h1v1h-1zm1 0h1v1h-1z" shape-rendering="crispEdges" style="fill:#c3c3c3;opacity:255"/><path d="M12 15h1v1h-1zm1 0h1v1h-1z" shape-rendering="crispEdges" style="fill:#d3d3d3;opacity:255"/><path d="M14 15h1v1h-1zm1 0h1v1h-1z" shape-rendering="crispEdges" style="fill:#c3c3c3;opacity:255"/><path d="M16 15h1v1h-1zm1 0h1v1h-1z" shape-rendering="crispEdges" style="fill:#d3d3d3;opacity:255"/><path d="M18 15h1v1h-1zm1 0h1v1h-1z" shape-rendering="crispEdges" style="fill:#c3c3c3;opacity:255"/><path d="M20 15h1v1h-1zm1 0h1v1h-1z" shape-rendering="crispEdges" style="fill:#d3d3d3;opacity:255"/><path d="M22 15h1v1h-1zm1 0h1v1h-1z" shape-rendering="crispEdges" style="fill:#c3c3c3;opacity:255"/><path d="M24 15h1v1h-1zm1 0h1v1h-1z" shape-rendering="crispEdges" style="fill:#d3d3d3;opacity:255"/><path d="M26 15h1v1h-1zm1 0h1v1h-1z" shape-rendering="crispEdges" style="fill:#c3c3c3;opacity:255"/><path d="M28 15h1v1h-1zm1 0h1v1h-1z" shape-rendering="crispEdges" style="fill:#d3d3d3;opacity:255"/><path d="M30 15h1v1h-1zm1 0h1v1h-1zM0 16h1v1H0zm1 0h1v1H1z" shape-rendering="crispEdges" style="fill:#a2a2a2;opacity:255"/><path d="M2 16h1v1H2zm1 0h1v1H3z" shape-rendering="crispEdges" style="fill:#e3e3e3;opacity:255"/><path d="M4 16h1v1H4zm1 0h1v1H5z" shape-rendering="crispEdges" style="fill:#c3c3c3;opacity:255"/><path d="M6 16h1v1H6zm1 0h1v1H7z" shape-rendering="crispEdges" style="fill:#d3d3d3;opacity:255"/><path d="M8 16h1v1H8zm1 0h1v1H9z" shape-rendering="crispEdges" style="fill:#c3c3c3;opacity:255"/><path d="M10 16h1v1h-1zm1 0h1v1h-1z" shape-rendering="crispEdges" style="fill:#d3d3d3;opacity:255"/><path d="M12 16h1v1h-1zm1 0h1v1h-1z" shape-rendering="crispEdges" style="fill:#c3c3c3;opacity:255"/><path d="M14 16h1v1h-1zm1 0h1v1h-1z" shape-rendering="crispEdges" style="fill:#d3d3d3;opacity:255"/><path d="M16 16h1v1h-1zm1 0h1v1h-1z" shape-rendering="crispEdges" style="fill:#c3c3c3;opacity:255"/><path d="M18 16h1v1h-1zm1 0h1v1h-1z" shape-rendering="crispEdges" style="fill:#d3d3d3;opacity:255"/><path d="M20 16h1v1h-1zm1 0h1v1h-1z" shape-rendering="crispEdges" style="fill:#c3c3c3;opacity:255"/><path d="M22 16h1v1h-1zm1 0h1v1h-1z" shape-rendering="crispEdges" style="fill:#d3d3d3;opacity:255"/><path d="M24 16h1v1h-1zm1 0h1v1h-1z" shape-rendering="crispEdges" style="fill:#c3c3c3;opacity:255"/><path d="M26 16h1v1h-1zm1 0h1v1h-1z" shape-rendering="crispEdges" style="fill:#d3d3d3;opacity:255"/><path d="M28 16h1v1h-1zm1 0h1v1h-1z" shape-rendering="crispEdges" style="fill:#c3c3c3;opacity:255"/><path d="M30 16h1v1h-1zm1 0h1v1h-1zM0 17h1v1H0zm1 0h1v1H1z" shape-rendering="crispEdges" style="fill:#a2a2a2;opacity:255"/><path d="M2 17h1v1H2zm1 0h1v1H3z" shape-rendering="crispEdges" style="fill:#e3e3e3;opacity:255"/><path d="M4 17h1v1H4zm1 0h1v1H5z" shape-rendering="crispEdges" style="fill:#c3c3c3;opacity:255"/><path d="M6 17h1v1H6zm1 0h1v1H7z" shape-rendering="crispEdges" style="fill:#d3d3d3;opacity:255"/><path d="M8 17h1v1H8zm1 0h1v1H9z" shape-rendering="crispEdges" style="fill:#c3c3c3;opacity:255"/><path d="M10 17h1v1h-1zm1 0h1v1h-1z" shape-rendering="crispEdges" style="fill:#d3d3d3;opacity:255"/><path d="M12 17h1v1h-1zm1 0h1v1h-1z" shape-rendering="crispEdges" style="fill:#c3c3c3;opacity:255"/><path d="M14 17h1v1h-1zm1 0h1v1h-1z" shape-rendering="crispEdges" style="fill:#d3d3d3;opacity:255"/><path d="M16 17h1v1h-1zm1 0h1v1h-1z" shape-rendering="crispEdges" style="fill:#c3c3c3;opacity:255"/><path d="M18 17h1v1h-1zm1 0h1v1h-1z" shape-rendering="crispEdges" style="fill:#d3d3d3;opacity:255"/><path d="M20 17h1v1h-1zm1 0h1v1h-1z" shape-rendering="crispEdges" style="fill:#c3c3c3;opacity:255"/><path d="M22 17h1v1h-1zm1 0h1v1h-1z" shape-rendering="crispEdges" style="fill:#d3d3d3;opacity:255"/><path d="M24 17h1v1h-1zm1 0h1v1h-1z" shape-rendering="crispEdges" style="fill:#c3c3c3;opacity:255"/><path d="M26 17h1v1h-1zm1 0h1v1h-1z" shape-rendering="crispEdges" style="fill:#d3d3d3;opacity:255"/><path d="M28 17h1v1h-1zm1 0h1v1h-1z" shape-rendering="crispEdges" style="fill:#c3c3c3;opacity:255"/><path d="M30 17h1v1h-1zm1 0h1v1h-1zM0 18h1v1H0zm1 0h1v1H1z" shape-rendering="crispEdges" style="fill:#a2a2a2;opacity:255"/><path d="M2 18h1v1H2zm1 0h1v1H3z" shape-rendering="crispEdges" style="fill:#e3e3e3;opacity:255"/><path d="M4 18h1v1H4zm1 0h1v1H5zm1 0h1v1H6zm1 0h1v1H7zm1 0h1v1H8zm1 0h1v1H9zm1 0h1v1h-1zm1 0h1v1h-1zm1 0h1v1h-1zm1 0h1v1h-1zm1 0h1v1h-1zm1 0h1v1h-1zm1 0h1v1h-1zm1 0h1v1h-1zm1 0h1v1h-1zm1 0h1v1h-1zm1 0h1v1h-1zm1 0h1v1h-1zm1 0h1v1h-1zm1 0h1v1h-1zm1 0h1v1h-1zm1 0h1v1h-1zm1 0h1v1h-1zm1 0h1v1h-1zm1 0h1v1h-1zm1 0h1v1h-1z" shape-rendering="crispEdges" style="fill:#c3c3c3;opacity:255"/><path d="M30 18h1v1h-1zm1 0h1v1h-1zM0 19h1v1H0zm1 0h1v1H1z" shape-rendering="crispEdges" style="fill:#a2a2a2;opacity:255"/><path d="M2 19h1v1H2zm1 0h1v1H3z" shape-rendering="crispEdges" style="fill:#e3e3e3;opacity:255"/><path d="M4 19h1v1H4zm1 0h1v1H5zm1 0h1v1H6zm1 0h1v1H7zm1 0h1v1H8zm1 0h1v1H9zm1 0h1v1h-1zm1 0h1v1h-1zm1 0h1v1h-1zm1 0h1v1h-1zm1 0h1v1h-1zm1 0h1v1h-1zm1 0h1v1h-1zm1 0h1v1h-1zm1 0h1v1h-1zm1 0h1v1h-1zm1 0h1v1h-1zm1 0h1v1h-1zm1 0h1v1h-1zm1 0h1v1h-1zm1 0h1v1h-1zm1 0h1v1h-1zm1 0h1v1h-1zm1 0h1v1h-1zm1 0h1v1h-1zm1 0h1v1h-1z" shape-rendering="crispEdges" style="fill:#c3c3c3;opacity:255"/><path d="M30 19h1v1h-1zm1 0h1v1h-1zM0 20h1v1H0zm1 0h1v1H1z" shape-rendering="crispEdges" style="fill:#a2a2a2;opacity:255"/><path d="M2 20h1v1H2zm1 0h1v1H3z" shape-rendering="crispEdges" style="fill:#e3e3e3;opacity:255"/><path d="M4 20h1v1H4zm1 0h1v1H5z" shape-rendering="crispEdges" style="fill:#c3c3c3;opacity:255"/><path d="M6 20h1v1H6zm1 0h1v1H7z" shape-rendering="crispEdges" style="fill:#b2b2b2;opacity:255"/><path d="M8 20h1v1H8zm1 0h1v1H9z" shape-rendering="crispEdges" style="fill:#c3c3c3;opacity:255"/><path d="M10 20h1v1h-1zm1 0h1v1h-1z" shape-rendering="crispEdges" style="fill:#b2b2b2;opacity:255"/><path d="M12 20h1v1h-1zm1 0h1v1h-1z" shape-rendering="crispEdges" style="fill:#c3c3c3;opacity:255"/><path d="M14 20h1v1h-1zm1 0h1v1h-1z" shape-rendering="crispEdges" style="fill:#b2b2b2;opacity:255"/><path d="M16 20h1v1h-1zm1 0h1v1h-1z" shape-rendering="crispEdges" style="fill:#c3c3c3;opacity:255"/><path d="M18 20h1v1h-1zm1 0h1v1h-1z" shape-rendering="crispEdges" style="fill:#b2b2b2;opacity:255"/><path d="M20 20h1v1h-1zm1 0h1v1h-1z" shape-rendering="crispEdges" style="fill:#c3c3c3;opacity:255"/><path d="M22 20h1v1h-1zm1 0h1v1h-1z" shape-rendering="crispEdges" style="fill:#b2b2b2;opacity:255"/><path d="M24 20h1v1h-1zm1 0h1v1h-1z" shape-rendering="crispEdges" style="fill:#c3c3c3;opacity:255"/><path d="M26 20h1v1h-1zm1 0h1v1h-1z" shape-rendering="crispEdges" style="fill:#b2b2b2;opacity:255"/><path d="M28 20h1v1h-1zm1 0h1v1h-1z" shape-rendering="crispEdges" style="fill:#c3c3c3;opacity:255"/><path d="M30 20h1v1h-1zm1 0h1v1h-1zM0 21h1v1H0zm1 0h1v1H1z" shape-rendering="crispEdges" style="fill:#a2a2a2;opacity:255"/><path d="M2 21h1v1H2zm1 0h1v1H3z" shape-rendering="crispEdges" style="fill:#e3e3e3;opacity:255"/><path d="M4 21h1v1H4zm1 0h1v1H5z" shape-rendering="crispEdges" style="fill:#c3c3c3;opacity:255"/><path d="M6 21h1v1H6zm1 0h1v1H7z" shape-rendering="crispEdges" style="fill:#b2b2b2;opacity:255"/><path d="M8 21h1v1H8zm1 0h1v1H9z" shape-rendering="crispEdges" style="fill:#c3c3c3;opacity:255"/><path d="M10 21h1v1h-1zm1 0h1v1h-1z" shape-rendering="crispEdges" style="fill:#b2b2b2;opacity:255"/><path d="M12 21h1v1h-1zm1 0h1v1h-1z" shape-rendering="crispEdges" style="fill:#c3c3c3;opacity:255"/><path d="M14 21h1v1h-1zm1 0h1v1h-1z" shape-rendering="crispEdges" style="fill:#b2b2b2;opacity:255"/><path d="M16 21h1v1h-1zm1 0h1v1h-1z" shape-rendering="crispEdges" style="fill:#c3c3c3;opacity:255"/><path d="M18 21h1v1h-1zm1 0h1v1h-1z" shape-rendering="crispEdges" style="fill:#b2b2b2;opacity:255"/><path d="M20 21h1v1h-1zm1 0h1v1h-1z" shape-rendering="crispEdges" style="fill:#c3c3c3;opacity:255"/><path d="M22 21h1v1h-1zm1 0h1v1h-1z" shape-rendering="crispEdges" style="fill:#b2b2b2;opacity:255"/><path d="M24 21h1v1h-1zm1 0h1v1h-1z" shape-rendering="crispEdges" style="fill:#c3c3c3;opacity:255"/><path d="M26 21h1v1h-1zm1 0h1v1h-1z" shape-rendering="crispEdges" style="fill:#b2b2b2;opacity:255"/><path d="M28 21h1v1h-1zm1 0h1v1h-1z" shape-rendering="crispEdges" style="fill:#c3c3c3;opacity:255"/><path d="M30 21h1v1h-1zm1 0h1v1h-1zM0 22h1v1H0zm1 0h1v1H1z" shape-rendering="crispEdges" style="fill:#a2a2a2;opacity:255"/><path d="M2 22h1v1H2zm1 0h1v1H3z" shape-rendering="crispEdges" style="fill:#e3e3e3;opacity:255"/><path d="M4 22h1v1H4zm1 0h1v1H5z" shape-rendering="crispEdges" style="fill:#b2b2b2;opacity:255"/><path d="M6 22h1v1H6zm1 0h1v1H7z" shape-rendering="crispEdges" style="fill:#c3c3c3;opacity:255"/><path d="M8 22h1v1H8zm1 0h1v1H9z" shape-rendering="crispEdges" style="fill:#b2b2b2;opacity:255"/><path d="M10 22h1v1h-1zm1 0h1v1h-1z" shape-rendering="crispEdges" style="fill:#c3c3c3;opacity:255"/><path d="M12 22h1v1h-1zm1 0h1v1h-1z" shape-rendering="crispEdges" style="fill:#b2b2b2;opacity:255"/><path d="M14 22h1v1h-1zm1 0h1v1h-1z" shape-rendering="crispEdges" style="fill:#c3c3c3;opacity:255"/><path d="M16 22h1v1h-1zm1 0h1v1h-1z" shape-rendering="crispEdges" style="fill:#b2b2b2;opacity:255"/><path d="M18 22h1v1h-1zm1 0h1v1h-1z" shape-rendering="crispEdges" style="fill:#c3c3c3;opacity:255"/><path d="M20 22h1v1h-1zm1 0h1v1h-1z" shape-rendering="crispEdges" style="fill:#b2b2b2;opacity:255"/><path d="M22 22h1v1h-1zm1 0h1v1h-1z" shape-rendering="crispEdges" style="fill:#c3c3c3;opacity:255"/><path d="M24 22h1v1h-1zm1 0h1v1h-1z" shape-rendering="crispEdges" style="fill:#b2b2b2;opacity:255"/><path d="M26 22h1v1h-1zm1 0h1v1h-1z" shape-rendering="crispEdges" style="fill:#c3c3c3;opacity:255"/><path d="M28 22h1v1h-1zm1 0h1v1h-1z" shape-rendering="crispEdges" style="fill:#b2b2b2;opacity:255"/><path d="M30 22h1v1h-1zm1 0h1v1h-1zM0 23h1v1H0zm1 0h1v1H1z" shape-rendering="crispEdges" style="fill:#a2a2a2;opacity:255"/><path d="M2 23h1v1H2zm1 0h1v1H3z" shape-rendering="crispEdges" style="fill:#e3e3e3;opacity:255"/><path d="M4 23h1v1H4zm1 0h1v1H5z" shape-rendering="crispEdges" style="fill:#b2b2b2;opacity:255"/><path d="M6 23h1v1H6zm1 0h1v1H7z" shape-rendering="crispEdges" style="fill:#c3c3c3;opacity:255"/><path d="M8 23h1v1H8zm1 0h1v1H9z" shape-rendering="crispEdges" style="fill:#b2b2b2;opacity:255"/><path d="M10 23h1v1h-1zm1 0h1v1h-1z" shape-rendering="crispEdges" style="fill:#c3c3c3;opacity:255"/><path d="M12 23h1v1h-1zm1 0h1v1h-1z" shape-rendering="crispEdges" style="fill:#b2b2b2;opacity:255"/><path d="M14 23h1v1h-1zm1 0h1v1h-1z" shape-rendering="crispEdges" style="fill:#c3c3c3;opacity:255"/><path d="M16 23h1v1h-1zm1 0h1v1h-1z" shape-rendering="crispEdges" style="fill:#b2b2b2;opacity:255"/><path d="M18 23h1v1h-1zm1 0h1v1h-1z" shape-rendering="crispEdges" style="fill:#c3c3c3;opacity:255"/><path d="M20 23h1v1h-1zm1 0h1v1h-1z" shape-rendering="crispEdges" style="fill:#b2b2b2;opacity:255"/><path d="M22 23h1v1h-1zm1 0h1v1h-1z" shape-rendering="crispEdges" style="fill:#c3c3c3;opacity:255"/><path d="M24 23h1v1h-1zm1 0h1v1h-1z" shape-rendering="crispEdges" style="fill:#b2b2b2;opacity:255"/><path d="M26 23h1v1h-1zm1 0h1v1h-1z" shape-rendering="crispEdges" style="fill:#c3c3c3;opacity:255"/><path d="M28 23h1v1h-1zm1 0h1v1h-1z" shape-rendering="crispEdges" style="fill:#b2b2b2;opacity:255"/><path d="M30 23h1v1h-1zm1 0h1v1h-1zM0 24h1v1H0zm1 0h1v1H1z" shape-rendering="crispEdges" style="fill:#a2a2a2;opacity:255"/><path d="M2 24h1v1H2zm1 0h1v1H3z" shape-rendering="crispEdges" style="fill:#e3e3e3;opacity:255"/><path d="M4 24h1v1H4zm1 0h1v1H5zm1 0h1v1H6zm1 0h1v1H7zm1 0h1v1H8zm1 0h1v1H9zm1 0h1v1h-1zm1 0h1v1h-1zm1 0h1v1h-1zm1 0h1v1h-1zm1 0h1v1h-1zm1 0h1v1h-1zm1 0h1v1h-1zm1 0h1v1h-1zm1 0h1v1h-1zm1 0h1v1h-1zm1 0h1v1h-1zm1 0h1v1h-1zm1 0h1v1h-1zm1 0h1v1h-1zm1 0h1v1h-1zm1 0h1v1h-1zm1 0h1v1h-1zm1 0h1v1h-1zm1 0h1v1h-1zm1 0h1v1h-1z" shape-rendering="crispEdges" style="fill:#b2b2b2;opacity:255"/><path d="M30 24h1v1h-1zm1 0h1v1h-1zM0 25h1v1H0zm1 0h1v1H1z" shape-rendering="crispEdges" style="fill:#a2a2a2;opacity:255"/><path d="M2 25h1v1H2zm1 0h1v1H3z" shape-rendering="crispEdges" style="fill:#e3e3e3;opacity:255"/><path d="M4 25h1v1H4zm1 0h1v1H5zm1 0h1v1H6zm1 0h1v1H7zm1 0h1v1H8zm1 0h1v1H9zm1 0h1v1h-1zm1 0h1v1h-1zm1 0h1v1h-1zm1 0h1v1h-1zm1 0h1v1h-1zm1 0h1v1h-1zm1 0h1v1h-1zm1 0h1v1h-1zm1 0h1v1h-1zm1 0h1v1h-1zm1 0h1v1h-1zm1 0h1v1h-1zm1 0h1v1h-1zm1 0h1v1h-1zm1 0h1v1h-1zm1 0h1v1h-1zm1 0h1v1h-1zm1 0h1v1h-1zm1 0h1v1h-1zm1 0h1v1h-1z" shape-rendering="crispEdges" style="fill:#b2b2b2;opacity:255"/><path d="M30 25h1v1h-1zm1 0h1v1h-1zM0 26h1v1H0zm1 0h1v1H1z" shape-rendering="crispEdges" style="fill:#a2a2a2;opacity:255"/><path d="M2 26h1v1H2zm1 0h1v1H3z" shape-rendering="crispEdges" style="fill:#c3c3c3;opacity:255"/><path d="M4 26h1v1H4zm1 0h1v1H5z" shape-rendering="crispEdges" style="fill:#a2a2a2;opacity:255"/><path d="M6 26h1v1H6zm1 0h1v1H7z" shape-rendering="crispEdges" style="fill:#b2b2b2;opacity:255"/><path d="M8 26h1v1H8zm1 0h1v1H9z" shape-rendering="crispEdges" style="fill:#a2a2a2;opacity:255"/><path d="M10 26h1v1h-1zm1 0h1v1h-1z" shape-rendering="crispEdges" style="fill:#b2b2b2;opacity:255"/><path d="M12 26h1v1h-1zm1 0h1v1h-1z" shape-rendering="crispEdges" style="fill:#a2a2a2;opacity:255"/><path d="M14 26h1v1h-1zm1 0h1v1h-1z" shape-rendering="crispEdges" style="fill:#b2b2b2;opacity:255"/><path d="M16 26h1v1h-1zm1 0h1v1h-1z" shape-rendering="crispEdges" style="fill:#a2a2a2;opacity:255"/><path d="M18 26h1v1h-1zm1 0h1v1h-1z" shape-rendering="crispEdges" style="fill:#b2b2b2;opacity:255"/><path d="M20 26h1v1h-1zm1 0h1v1h-1z" shape-rendering="crispEdges" style="fill:#a2a2a2;opacity:255"/><path d="M22 26h1v1h-1zm1 0h1v1h-1z" shape-rendering="crispEdges" style="fill:#b2b2b2;opacity:255"/><path d="M24 26h1v1h-1zm1 0h1v1h-1z" shape-rendering="crispEdges" style="fill:#a2a2a2;opacity:255"/><path d="M26 26h1v1h-1zm1 0h1v1h-1z" shape-rendering="crispEdges" style="fill:#b2b2b2;opacity:255"/><path d="M28 26h1v1h-1zm1 0h1v1h-1zm1 0h1v1h-1zm1 0h1v1h-1zM0 27h1v1H0zm1 0h1v1H1z" shape-rendering="crispEdges" style="fill:#a2a2a2;opacity:255"/><path d="M2 27h1v1H2zm1 0h1v1H3z" shape-rendering="crispEdges" style="fill:#c3c3c3;opacity:255"/><path d="M4 27h1v1H4zm1 0h1v1H5z" shape-rendering="crispEdges" style="fill:#a2a2a2;opacity:255"/><path d="M6 27h1v1H6zm1 0h1v1H7z" shape-rendering="crispEdges" style="fill:#b2b2b2;opacity:255"/><path d="M8 27h1v1H8zm1 0h1v1H9z" shape-rendering="crispEdges" style="fill:#a2a2a2;opacity:255"/><path d="M10 27h1v1h-1zm1 0h1v1h-1z" shape-rendering="crispEdges" style="fill:#b2b2b2;opacity:255"/><path d="M12 27h1v1h-1zm1 0h1v1h-1z" shape-rendering="crispEdges" style="fill:#a2a2a2;opacity:255"/><path d="M14 27h1v1h-1zm1 0h1v1h-1z" shape-rendering="crispEdges" style="fill:#b2b2b2;opacity:255"/><path d="M16 27h1v1h-1zm1 0h1v1h-1z" shape-rendering="crispEdges" style="fill:#a2a2a2;opacity:255"/><path d="M18 27h1v1h-1zm1 0h1v1h-1z" shape-rendering="crispEdges" style="fill:#b2b2b2;opacity:255"/><path d="M20 27h1v1h-1zm1 0h1v1h-1z" shape-rendering="crispEdges" style="fill:#a2a2a2;opacity:255"/><path d="M22 27h1v1h-1zm1 0h1v1h-1z" shape-rendering="crispEdges" style="fill:#b2b2b2;opacity:255"/><path d="M24 27h1v1h-1zm1 0h1v1h-1z" shape-rendering="crispEdges" style="fill:#a2a2a2;opacity:255"/><path d="M26 27h1v1h-1zm1 0h1v1h-1z" shape-rendering="crispEdges" style="fill:#b2b2b2;opacity:255"/><path d="M28 27h1v1h-1zm1 0h1v1h-1zm1 0h1v1h-1zm1 0h1v1h-1zM0 28h1v1H0zm1 0h1v1H1z" shape-rendering="crispEdges" style="fill:#a2a2a2;opacity:255"/><path d="M2 28h1v1H2zm1 0h1v1H3z" shape-rendering="crispEdges" style="fill:#c3c3c3;opacity:255"/><path d="M4 28h1v1H4zm1 0h1v1H5z" shape-rendering="crispEdges" style="fill:#b2b2b2;opacity:255"/><path d="M6 28h1v1H6zm1 0h1v1H7z" shape-rendering="crispEdges" style="fill:#a2a2a2;opacity:255"/><path d="M8 28h1v1H8zm1 0h1v1H9z" shape-rendering="crispEdges" style="fill:#b2b2b2;opacity:255"/><path d="M10 28h1v1h-1zm1 0h1v1h-1z" shape-rendering="crispEdges" style="fill:#a2a2a2;opacity:255"/><path d="M12 28h1v1h-1zm1 0h1v1h-1z" shape-rendering="crispEdges" style="fill:#b2b2b2;opacity:255"/><path d="M14 28h1v1h-1zm1 0h1v1h-1z" shape-rendering="crispEdges" style="fill:#a2a2a2;opacity:255"/><path d="M16 28h1v1h-1zm1 0h1v1h-1z" shape-rendering="crispEdges" style="fill:#b2b2b2;opacity:255"/><path d="M18 28h1v1h-1zm1 0h1v1h-1z" shape-rendering="crispEdges" style="fill:#a2a2a2;opacity:255"/><path d="M20 28h1v1h-1zm1 0h1v1h-1z" shape-rendering="crispEdges" style="fill:#b2b2b2;opacity:255"/><path d="M22 28h1v1h-1zm1 0h1v1h-1z" shape-rendering="crispEdges" style="fill:#a2a2a2;opacity:255"/><path d="M24 28h1v1h-1zm1 0h1v1h-1z" shape-rendering="crispEdges" style="fill:#b2b2b2;opacity:255"/><path d="M26 28h1v1h-1zm1 0h1v1h-1z" shape-rendering="crispEdges" style="fill:#a2a2a2;opacity:255"/><path d="M28 28h1v1h-1zm1 0h1v1h-1z" shape-rendering="crispEdges" style="fill:#b2b2b2;opacity:255"/><path d="M30 28h1v1h-1zm1 0h1v1h-1zM0 29h1v1H0zm1 0h1v1H1z" shape-rendering="crispEdges" style="fill:#a2a2a2;opacity:255"/><path d="M2 29h1v1H2zm1 0h1v1H3z" shape-rendering="crispEdges" style="fill:#c3c3c3;opacity:255"/><path d="M4 29h1v1H4zm1 0h1v1H5z" shape-rendering="crispEdges" style="fill:#b2b2b2;opacity:255"/><path d="M6 29h1v1H6zm1 0h1v1H7z" shape-rendering="crispEdges" style="fill:#a2a2a2;opacity:255"/><path d="M8 29h1v1H8zm1 0h1v1H9z" shape-rendering="crispEdges" style="fill:#b2b2b2;opacity:255"/><path d="M10 29h1v1h-1zm1 0h1v1h-1z" shape-rendering="crispEdges" style="fill:#a2a2a2;opacity:255"/><path d="M12 29h1v1h-1zm1 0h1v1h-1z" shape-rendering="crispEdges" style="fill:#b2b2b2;opacity:255"/><path d="M14 29h1v1h-1zm1 0h1v1h-1z" shape-rendering="crispEdges" style="fill:#a2a2a2;opacity:255"/><path d="M16 29h1v1h-1zm1 0h1v1h-1z" shape-rendering="crispEdges" style="fill:#b2b2b2;opacity:255"/><path d="M18 29h1v1h-1zm1 0h1v1h-1z" shape-rendering="crispEdges" style="fill:#a2a2a2;opacity:255"/><path d="M20 29h1v1h-1zm1 0h1v1h-1z" shape-rendering="crispEdges" style="fill:#b2b2b2;opacity:255"/><path d="M22 29h1v1h-1zm1 0h1v1h-1z" shape-rendering="crispEdges" style="fill:#a2a2a2;opacity:255"/><path d="M24 29h1v1h-1zm1 0h1v1h-1z" shape-rendering="crispEdges" style="fill:#b2b2b2;opacity:255"/><path d="M26 29h1v1h-1zm1 0h1v1h-1z" shape-rendering="crispEdges" style="fill:#a2a2a2;opacity:255"/><path d="M28 29h1v1h-1zm1 0h1v1h-1z" shape-rendering="crispEdges" style="fill:#b2b2b2;opacity:255"/><path d="M30 29h1v1h-1zm1 0h1v1h-1zM0 30h1v1H0zm1 0h1v1H1zm1 0h1v1H2zm1 0h1v1H3zm1 0h1v1H4zm1 0h1v1H5zm1 0h1v1H6zm1 0h1v1H7zm1 0h1v1H8zm1 0h1v1H9zm1 0h1v1h-1zm1 0h1v1h-1zm1 0h1v1h-1zm1 0h1v1h-1zm1 0h1v1h-1zm1 0h1v1h-1zm1 0h1v1h-1zm1 0h1v1h-1zm1 0h1v1h-1zm1 0h1v1h-1zm1 0h1v1h-1zm1 0h1v1h-1zm1 0h1v1h-1zm1 0h1v1h-1zm1 0h1v1h-1zm1 0h1v1h-1zm1 0h1v1h-1zm1 0h1v1h-1zm1 0h1v1h-1zm1 0h1v1h-1zm1 0h1v1h-1zm1 0h1v1h-1zM0 31h1v1H0zm1 0h1v1H1zm1 0h1v1H2zm1 0h1v1H3zm1 0h1v1H4zm1 0h1v1H5zm1 0h1v1H6zm1 0h1v1H7zm1 0h1v1H8zm1 0h1v1H9zm1 0h1v1h-1zm1 0h1v1h-1zm1 0h1v1h-1zm1 0h1v1h-1zm1 0h1v1h-1zm1 0h1v1h-1zm1 0h1v1h-1zm1 0h1v1h-1zm1 0h1v1h-1zm1 0h1v1h-1zm1 0h1v1h-1zm1 0h1v1h-1zm1 0h1v1h-1zm1 0h1v1h-1zm1 0h1v1h-1zm1 0h1v1h-1zm1 0h1v1h-1zm1 0h1v1h-1zm1 0h1v1h-1zm1 0h1v1h-1zm1 0h1v1h-1zm1 0h1v1h-1z" shape-rendering="crispEdges" style="fill:#a2a2a2;opacity:255"/></svg>