<svg xmlns="http://www.w3.org/2000/svg" width="12" height="12" viewBox="0 0 12 12"><path d="M0 0h1v1H0zm1 0h1v1H1zm1 0h1v1H2zm1 0h1v1H3z" shape-rendering="crispEdges" style="fill:#000;opacity:255"/><path d="M4 0h1v1H4zm1 0h1v1H5zm1 0h1v1H6zm1 0h1v1H7z" shape-rendering="crispEdges" style="fill:#fbfbfb;opacity:255"/><path d="M8 0h1v1H8zm1 0h1v1H9zm1 0h1v1h-1zm1 0h1v1h-1zM0 1h1v1H0zm1 0h1v1H1zm1 0h1v1H2zm1 0h1v1H3z" shape-rendering="crispEdges" style="fill:#000;opacity:255"/><path d="M4 1h1v1H4zm1 0h1v1H5zm1 0h1v1H6zm1 0h1v1H7z" shape-rendering="crispEdges" style="fill:#fbfbfb;opacity:255"/><path d="M8 1h1v1H8zm1 0h1v1H9zm1 0h1v1h-1zm1 0h1v1h-1zM0 2h1v1H0zm1 0h1v1H1z" shape-rendering="crispEdges" style="fill:#000;opacity:255"/><path d="M2 2h1v1H2zm1 0h1v1H3z" shape-rendering="crispEdges" style="fill:#fbfbfb;opacity:255"/><path d="M4 2h1v1H4zm1 0h1v1H5zm1 0h1v1H6zm1 0h1v1H7z" shape-rendering="crispEdges" style="fill:#797979;opacity:255"/><path d="M8 2h1v1H8zm1 0h1v1H9z" shape-rendering="crispEdges" style="fill:#fbfbfb;opacity:255"/><path d="M10 2h1v1h-1zm1 0h1v1h-1zM0 3h1v1H0zm1 0h1v1H1z" shape-rendering="crispEdges" style="fill:#000;opacity:255"/><path d="M2 3h1v1H2zm1 0h1v1H3z" shape-rendering="crispEdges" style="fill:#fbfbfb;opacity:255"/><path d="M4 3h1v1H4zm1 0h1v1H5zm1 0h1v1H6zm1 0h1v1H7z" shape-rendering="crispEdges" style="fill:#797979;opacity:255"/><path d="M8 3h1v1H8zm1 0h1v1H9z" shape-rendering="crispEdges" style="fill:#fbfbfb;opacity:255"/><path d="M10 3h1v1h-1zm1 0h1v1h-1z" shape-rendering="crispEdges" style="fill:#000;opacity:255"/><path d="M0 4h1v1H0zm1 0h1v1H1z" shape-rendering="crispEdges" style="fill:#fbfbfb;opacity:255"/><path d="M2 4h1v1H2zm1 0h1v1H3zm5 0h1v1H8zm1 0h1v1H9z" shape-rendering="crispEdges" style="fill:#797979;opacity:255"/><path d="M10 4h1v1h-1zm1 0h1v1h-1zM0 5h1v1H0zm1 0h1v1H1z" shape-rendering="crispEdges" style="fill:#fbfbfb;opacity:255"/><path d="M2 5h1v1H2zm1 0h1v1H3zm5 0h1v1H8zm1 0h1v1H9z" shape-rendering="crispEdges" style="fill:#797979;opacity:255"/><path d="M10 5h1v1h-1zm1 0h1v1h-1zM0 6h1v1H0zm1 0h1v1H1z" shape-rendering="crispEdges" style="fill:#fbfbfb;opacity:255"/><path d="M2 6h1v1H2zm1 0h1v1H3zm5 0h1v1H8zm1 0h1v1H9z" shape-rendering="crispEdges" style="fill:#797979;opacity:255"/><path d="M10 6h1v1h-1zm1 0h1v1h-1zM0 7h1v1H0zm1 0h1v1H1z" shape-rendering="crispEdges" style="fill:#fbfbfb;opacity:255"/><path d="M2 7h1v1H2zm1 0h1v1H3zm5 0h1v1H8zm1 0h1v1H9z" shape-rendering="crispEdges" style="fill:#797979;opacity:255"/><path d="M10 7h1v1h-1zm1 0h1v1h-1z" shape-rendering="crispEdges" style="fill:#fbfbfb;opacity:255"/><path d="M0 8h1v1H0zm1 0h1v1H1z" shape-rendering="crispEdges" style="fill:#000;opacity:255"/><path d="M2 8h1v1H2zm1 0h1v1H3z" shape-rendering="crispEdges" style="fill:#fbfbfb;opacity:255"/><path d="M4 8h1v1H4zm1 0h1v1H5zm1 0h1v1H6zm1 0h1v1H7z" shape-rendering="crispEdges" style="fill:#797979;opacity:255"/><path d="M8 8h1v1H8zm1 0h1v1H9z" shape-rendering="crispEdges" style="fill:#fbfbfb;opacity:255"/><path d="M10 8h1v1h-1zm1 0h1v1h-1zM0 9h1v1H0zm1 0h1v1H1z" shape-rendering="crispEdges" style="fill:#000;opacity:255"/><path d="M2 9h1v1H2zm1 0h1v1H3z" shape-rendering="crispEdges" style="fill:#fbfbfb;opacity:255"/><path d="M4 9h1v1H4zm1 0h1v1H5zm1 0h1v1H6zm1 0h1v1H7z" shape-rendering="crispEdges" style="fill:#797979;opacity:255"/><path d="M8 9h1v1H8zm1 0h1v1H9z" shape-rendering="crispEdges" style="fill:#fbfbfb;opacity:255"/><path d="M10 9h1v1h-1zm1 0h1v1h-1zM0 10h1v1H0zm1 0h1v1H1zm1 0h1v1H2zm1 0h1v1H3z" shape-rendering="crispEdges" style="fill:#000;opacity:255"/><path d="M4 10h1v1H4zm1 0h1v1H5zm1 0h1v1H6zm1 0h1v1H7z" shape-rendering="crispEdges" style="fill:#fbfbfb;opacity:255"/><path d="M8 10h1v1H8zm1 0h1v1H9zm1 0h1v1h-1zm1 0h1v1h-1zM0 11h1v1H0zm1 0h1v1H1zm1 0h1v1H2zm1 0h1v1H3z" shape-rendering="crispEdges" style="fill:#000;opacity:255"/><path d="M4 11h1v1H4zm1 0h1v1H5zm1 0h1v1H6zm1 0h1v1H7z" shape-rendering="crispEdges" style="fill:#fbfbfb;opacity:255"/><path d="M8 11h1v1H8zm1 0h1v1H9zm1 0h1v1h-1zm1 0h1v1h-1z" shape-rendering="crispEdges" style="fill:#000;opacity:255"/></svg>