<svg xmlns="http://www.w3.org/2000/svg" width="28" height="30" viewBox="0 0 28 30"><path d="M0 0h1v1H0zm1 0h1v1H1z" shape-rendering="crispEdges" style="fill:#e3e3e3;opacity:255"/><path d="M2 0h1v1H2zm1 0h1v1H3z" shape-rendering="crispEdges" style="fill:#d3d3d3;opacity:255"/><path d="M4 0h1v1H4zm1 0h1v1H5z" shape-rendering="crispEdges" style="fill:#f3f3f3;opacity:255"/><path d="M6 0h1v1H6zm1 0h1v1H7z" shape-rendering="crispEdges" style="fill:#d3d3d3;opacity:255"/><path d="M8 0h1v1H8zm1 0h1v1H9z" shape-rendering="crispEdges" style="fill:#c3c3c3;opacity:255"/><path d="M10 0h1v1h-1zm1 0h1v1h-1z" shape-rendering="crispEdges" style="fill:#f3f3f3;opacity:255"/><path d="M12 0h1v1h-1zm1 0h1v1h-1z" shape-rendering="crispEdges" style="fill:#c3c3c3;opacity:255"/><path d="M14 0h1v1h-1zm1 0h1v1h-1z" shape-rendering="crispEdges" style="fill:#b2b2b2;opacity:255"/><path d="M16 0h1v1h-1zm1 0h1v1h-1z" shape-rendering="crispEdges" style="fill:#f3f3f3;opacity:255"/><path d="M18 0h1v1h-1zm1 0h1v1h-1z" shape-rendering="crispEdges" style="fill:#b2b2b2;opacity:255"/><path d="M20 0h1v1h-1zm1 0h1v1h-1z" shape-rendering="crispEdges" style="fill:#a2a2a2;opacity:255"/><path d="M22 0h1v1h-1zm1 0h1v1h-1z" shape-rendering="crispEdges" style="fill:#f3f3f3;opacity:255"/><path d="M24 0h1v1h-1zm1 0h1v1h-1z" shape-rendering="crispEdges" style="fill:#a2a2a2;opacity:255"/><path d="M26 0h1v1h-1zm1 0h1v1h-1z" shape-rendering="crispEdges" style="fill:#797979;opacity:255"/><path d="M0 1h1v1H0zm1 0h1v1H1z" shape-rendering="crispEdges" style="fill:#e3e3e3;opacity:255"/><path d="M2 1h1v1H2zm1 0h1v1H3z" shape-rendering="crispEdges" style="fill:#d3d3d3;opacity:255"/><path d="M4 1h1v1H4zm1 0h1v1H5z" shape-rendering="crispEdges" style="fill:#f3f3f3;opacity:255"/><path d="M6 1h1v1H6zm1 0h1v1H7z" shape-rendering="crispEdges" style="fill:#d3d3d3;opacity:255"/><path d="M8 1h1v1H8zm1 0h1v1H9z" shape-rendering="crispEdges" style="fill:#c3c3c3;opacity:255"/><path d="M10 1h1v1h-1zm1 0h1v1h-1z" shape-rendering="crispEdges" style="fill:#f3f3f3;opacity:255"/><path d="M12 1h1v1h-1zm1 0h1v1h-1z" shape-rendering="crispEdges" style="fill:#c3c3c3;opacity:255"/><path d="M14 1h1v1h-1zm1 0h1v1h-1z" shape-rendering="crispEdges" style="fill:#b2b2b2;opacity:255"/><path d="M16 1h1v1h-1zm1 0h1v1h-1z" shape-rendering="crispEdges" style="fill:#f3f3f3;opacity:255"/><path d="M18 1h1v1h-1zm1 0h1v1h-1z" shape-rendering="crispEdges" style="fill:#b2b2b2;opacity:255"/><path d="M20 1h1v1h-1zm1 0h1v1h-1z" shape-rendering="crispEdges" style="fill:#a2a2a2;opacity:255"/><path d="M22 1h1v1h-1zm1 0h1v1h-1z" shape-rendering="crispEdges" style="fill:#f3f3f3;opacity:255"/><path d="M24 1h1v1h-1zm1 0h1v1h-1z" shape-rendering="crispEdges" style="fill:#a2a2a2;opacity:255"/><path d="M26 1h1v1h-1zm1 0h1v1h-1z" shape-rendering="crispEdges" style="fill:#797979;opacity:255"/><path d="M0 2h1v1H0zm1 0h1v1H1z" shape-rendering="crispEdges" style="fill:#e3e3e3;opacity:255"/><path d="M2 2h1v1H2zm1 0h1v1H3z" shape-rendering="crispEdges" style="fill:#d3d3d3;opacity:255"/><path d="M4 2h1v1H4zm1 0h1v1H5z" shape-rendering="crispEdges" style="fill:#f3f3f3;opacity:255"/><path d="M6 2h1v1H6zm1 0h1v1H7z" shape-rendering="crispEdges" style="fill:#d3d3d3;opacity:255"/><path d="M8 2h1v1H8zm1 0h1v1H9z" shape-rendering="crispEdges" style="fill:#c3c3c3;opacity:255"/><path d="M10 2h1v1h-1zm1 0h1v1h-1z" shape-rendering="crispEdges" style="fill:#f3f3f3;opacity:255"/><path d="M12 2h1v1h-1zm1 0h1v1h-1z" shape-rendering="crispEdges" style="fill:#c3c3c3;opacity:255"/><path d="M14 2h1v1h-1zm1 0h1v1h-1z" shape-rendering="crispEdges" style="fill:#b2b2b2;opacity:255"/><path d="M16 2h1v1h-1zm1 0h1v1h-1z" shape-rendering="crispEdges" style="fill:#f3f3f3;opacity:255"/><path d="M18 2h1v1h-1zm1 0h1v1h-1z" shape-rendering="crispEdges" style="fill:#b2b2b2;opacity:255"/><path d="M20 2h1v1h-1zm1 0h1v1h-1z" shape-rendering="crispEdges" style="fill:#a2a2a2;opacity:255"/><path d="M22 2h1v1h-1zm1 0h1v1h-1z" shape-rendering="crispEdges" style="fill:#f3f3f3;opacity:255"/><path d="M24 2h1v1h-1zm1 0h1v1h-1z" shape-rendering="crispEdges" style="fill:#a2a2a2;opacity:255"/><path d="M26 2h1v1h-1zm1 0h1v1h-1z" shape-rendering="crispEdges" style="fill:#797979;opacity:255"/><path d="M0 3h1v1H0zm1 0h1v1H1z" shape-rendering="crispEdges" style="fill:#e3e3e3;opacity:255"/><path d="M2 3h1v1H2zm1 0h1v1H3z" shape-rendering="crispEdges" style="fill:#d3d3d3;opacity:255"/><path d="M4 3h1v1H4zm1 0h1v1H5z" shape-rendering="crispEdges" style="fill:#f3f3f3;opacity:255"/><path d="M6 3h1v1H6zm1 0h1v1H7z" shape-rendering="crispEdges" style="fill:#d3d3d3;opacity:255"/><path d="M8 3h1v1H8zm1 0h1v1H9z" shape-rendering="crispEdges" style="fill:#c3c3c3;opacity:255"/><path d="M10 3h1v1h-1zm1 0h1v1h-1z" shape-rendering="crispEdges" style="fill:#f3f3f3;opacity:255"/><path d="M12 3h1v1h-1zm1 0h1v1h-1z" shape-rendering="crispEdges" style="fill:#c3c3c3;opacity:255"/><path d="M14 3h1v1h-1zm1 0h1v1h-1z" shape-rendering="crispEdges" style="fill:#b2b2b2;opacity:255"/><path d="M16 3h1v1h-1zm1 0h1v1h-1z" shape-rendering="crispEdges" style="fill:#f3f3f3;opacity:255"/><path d="M18 3h1v1h-1zm1 0h1v1h-1z" shape-rendering="crispEdges" style="fill:#b2b2b2;opacity:255"/><path d="M20 3h1v1h-1zm1 0h1v1h-1z" shape-rendering="crispEdges" style="fill:#a2a2a2;opacity:255"/><path d="M22 3h1v1h-1zm1 0h1v1h-1z" shape-rendering="crispEdges" style="fill:#f3f3f3;opacity:255"/><path d="M24 3h1v1h-1zm1 0h1v1h-1z" shape-rendering="crispEdges" style="fill:#a2a2a2;opacity:255"/><path d="M26 3h1v1h-1zm1 0h1v1h-1z" shape-rendering="crispEdges" style="fill:#797979;opacity:255"/><path d="M0 4h1v1H0zm1 0h1v1H1z" shape-rendering="crispEdges" style="fill:#e3e3e3;opacity:255"/><path d="M2 4h1v1H2zm1 0h1v1H3z" shape-rendering="crispEdges" style="fill:#d3d3d3;opacity:255"/><path d="M4 4h1v1H4zm1 0h1v1H5z" shape-rendering="crispEdges" style="fill:#f3f3f3;opacity:255"/><path d="M6 4h1v1H6zm1 0h1v1H7z" shape-rendering="crispEdges" style="fill:#d3d3d3;opacity:255"/><path d="M8 4h1v1H8zm1 0h1v1H9z" shape-rendering="crispEdges" style="fill:#c3c3c3;opacity:255"/><path d="M10 4h1v1h-1zm1 0h1v1h-1z" shape-rendering="crispEdges" style="fill:#f3f3f3;opacity:255"/><path d="M12 4h1v1h-1zm1 0h1v1h-1z" shape-rendering="crispEdges" style="fill:#c3c3c3;opacity:255"/><path d="M14 4h1v1h-1zm1 0h1v1h-1z" shape-rendering="crispEdges" style="fill:#b2b2b2;opacity:255"/><path d="M16 4h1v1h-1zm1 0h1v1h-1z" shape-rendering="crispEdges" style="fill:#f3f3f3;opacity:255"/><path d="M18 4h1v1h-1zm1 0h1v1h-1z" shape-rendering="crispEdges" style="fill:#b2b2b2;opacity:255"/><path d="M20 4h1v1h-1zm1 0h1v1h-1z" shape-rendering="crispEdges" style="fill:#a2a2a2;opacity:255"/><path d="M22 4h1v1h-1zm1 0h1v1h-1z" shape-rendering="crispEdges" style="fill:#f3f3f3;opacity:255"/><path d="M24 4h1v1h-1zm1 0h1v1h-1z" shape-rendering="crispEdges" style="fill:#a2a2a2;opacity:255"/><path d="M26 4h1v1h-1zm1 0h1v1h-1z" shape-rendering="crispEdges" style="fill:#797979;opacity:255"/><path d="M0 5h1v1H0zm1 0h1v1H1z" shape-rendering="crispEdges" style="fill:#e3e3e3;opacity:255"/><path d="M2 5h1v1H2zm1 0h1v1H3z" shape-rendering="crispEdges" style="fill:#d3d3d3;opacity:255"/><path d="M4 5h1v1H4zm1 0h1v1H5z" shape-rendering="crispEdges" style="fill:#f3f3f3;opacity:255"/><path d="M6 5h1v1H6zm1 0h1v1H7z" shape-rendering="crispEdges" style="fill:#d3d3d3;opacity:255"/><path d="M8 5h1v1H8zm1 0h1v1H9z" shape-rendering="crispEdges" style="fill:#c3c3c3;opacity:255"/><path d="M10 5h1v1h-1zm1 0h1v1h-1z" shape-rendering="crispEdges" style="fill:#f3f3f3;opacity:255"/><path d="M12 5h1v1h-1zm1 0h1v1h-1z" shape-rendering="crispEdges" style="fill:#c3c3c3;opacity:255"/><path d="M14 5h1v1h-1zm1 0h1v1h-1z" shape-rendering="crispEdges" style="fill:#b2b2b2;opacity:255"/><path d="M16 5h1v1h-1zm1 0h1v1h-1z" shape-rendering="crispEdges" style="fill:#f3f3f3;opacity:255"/><path d="M18 5h1v1h-1zm1 0h1v1h-1z" shape-rendering="crispEdges" style="fill:#b2b2b2;opacity:255"/><path d="M20 5h1v1h-1zm1 0h1v1h-1z" shape-rendering="crispEdges" style="fill:#a2a2a2;opacity:255"/><path d="M22 5h1v1h-1zm1 0h1v1h-1z" shape-rendering="crispEdges" style="fill:#f3f3f3;opacity:255"/><path d="M24 5h1v1h-1zm1 0h1v1h-1z" shape-rendering="crispEdges" style="fill:#a2a2a2;opacity:255"/><path d="M26 5h1v1h-1zm1 0h1v1h-1z" shape-rendering="crispEdges" style="fill:#797979;opacity:255"/><path d="M0 6h1v1H0zm1 0h1v1H1z" shape-rendering="crispEdges" style="fill:#e3e3e3;opacity:255"/><path d="M2 6h1v1H2zm1 0h1v1H3z" shape-rendering="crispEdges" style="fill:#d3d3d3;opacity:255"/><path d="M4 6h1v1H4zm1 0h1v1H5z" shape-rendering="crispEdges" style="fill:#f3f3f3;opacity:255"/><path d="M6 6h1v1H6zm1 0h1v1H7z" shape-rendering="crispEdges" style="fill:#d3d3d3;opacity:255"/><path d="M8 6h1v1H8zm1 0h1v1H9z" shape-rendering="crispEdges" style="fill:#c3c3c3;opacity:255"/><path d="M10 6h1v1h-1zm1 0h1v1h-1z" shape-rendering="crispEdges" style="fill:#f3f3f3;opacity:255"/><path d="M12 6h1v1h-1zm1 0h1v1h-1z" shape-rendering="crispEdges" style="fill:#c3c3c3;opacity:255"/><path d="M14 6h1v1h-1zm1 0h1v1h-1z" shape-rendering="crispEdges" style="fill:#b2b2b2;opacity:255"/><path d="M16 6h1v1h-1zm1 0h1v1h-1z" shape-rendering="crispEdges" style="fill:#f3f3f3;opacity:255"/><path d="M18 6h1v1h-1zm1 0h1v1h-1z" shape-rendering="crispEdges" style="fill:#b2b2b2;opacity:255"/><path d="M20 6h1v1h-1zm1 0h1v1h-1z" shape-rendering="crispEdges" style="fill:#a2a2a2;opacity:255"/><path d="M22 6h1v1h-1zm1 0h1v1h-1z" shape-rendering="crispEdges" style="fill:#f3f3f3;opacity:255"/><path d="M24 6h1v1h-1zm1 0h1v1h-1z" shape-rendering="crispEdges" style="fill:#a2a2a2;opacity:255"/><path d="M26 6h1v1h-1zm1 0h1v1h-1z" shape-rendering="crispEdges" style="fill:#797979;opacity:255"/><path d="M0 7h1v1H0zm1 0h1v1H1z" shape-rendering="crispEdges" style="fill:#e3e3e3;opacity:255"/><path d="M2 7h1v1H2zm1 0h1v1H3z" shape-rendering="crispEdges" style="fill:#d3d3d3;opacity:255"/><path d="M4 7h1v1H4zm1 0h1v1H5z" shape-rendering="crispEdges" style="fill:#f3f3f3;opacity:255"/><path d="M6 7h1v1H6zm1 0h1v1H7z" shape-rendering="crispEdges" style="fill:#d3d3d3;opacity:255"/><path d="M8 7h1v1H8zm1 0h1v1H9z" shape-rendering="crispEdges" style="fill:#c3c3c3;opacity:255"/><path d="M10 7h1v1h-1zm1 0h1v1h-1z" shape-rendering="crispEdges" style="fill:#f3f3f3;opacity:255"/><path d="M12 7h1v1h-1zm1 0h1v1h-1z" shape-rendering="crispEdges" style="fill:#c3c3c3;opacity:255"/><path d="M14 7h1v1h-1zm1 0h1v1h-1z" shape-rendering="crispEdges" style="fill:#b2b2b2;opacity:255"/><path d="M16 7h1v1h-1zm1 0h1v1h-1z" shape-rendering="crispEdges" style="fill:#f3f3f3;opacity:255"/><path d="M18 7h1v1h-1zm1 0h1v1h-1z" shape-rendering="crispEdges" style="fill:#b2b2b2;opacity:255"/><path d="M20 7h1v1h-1zm1 0h1v1h-1z" shape-rendering="crispEdges" style="fill:#a2a2a2;opacity:255"/><path d="M22 7h1v1h-1zm1 0h1v1h-1z" shape-rendering="crispEdges" style="fill:#f3f3f3;opacity:255"/><path d="M24 7h1v1h-1zm1 0h1v1h-1z" shape-rendering="crispEdges" style="fill:#a2a2a2;opacity:255"/><path d="M26 7h1v1h-1zm1 0h1v1h-1z" shape-rendering="crispEdges" style="fill:#797979;opacity:255"/><path d="M0 8h1v1H0zm1 0h1v1H1z" shape-rendering="crispEdges" style="fill:#e3e3e3;opacity:255"/><path d="M2 8h1v1H2zm1 0h1v1H3z" shape-rendering="crispEdges" style="fill:#d3d3d3;opacity:255"/><path d="M4 8h1v1H4zm1 0h1v1H5z" shape-rendering="crispEdges" style="fill:#f3f3f3;opacity:255"/><path d="M6 8h1v1H6zm1 0h1v1H7z" shape-rendering="crispEdges" style="fill:#d3d3d3;opacity:255"/><path d="M8 8h1v1H8zm1 0h1v1H9z" shape-rendering="crispEdges" style="fill:#c3c3c3;opacity:255"/><path d="M10 8h1v1h-1zm1 0h1v1h-1z" shape-rendering="crispEdges" style="fill:#f3f3f3;opacity:255"/><path d="M12 8h1v1h-1zm1 0h1v1h-1z" shape-rendering="crispEdges" style="fill:#c3c3c3;opacity:255"/><path d="M14 8h1v1h-1zm1 0h1v1h-1z" shape-rendering="crispEdges" style="fill:#b2b2b2;opacity:255"/><path d="M16 8h1v1h-1zm1 0h1v1h-1z" shape-rendering="crispEdges" style="fill:#f3f3f3;opacity:255"/><path d="M18 8h1v1h-1zm1 0h1v1h-1z" shape-rendering="crispEdges" style="fill:#b2b2b2;opacity:255"/><path d="M20 8h1v1h-1zm1 0h1v1h-1z" shape-rendering="crispEdges" style="fill:#a2a2a2;opacity:255"/><path d="M22 8h1v1h-1zm1 0h1v1h-1z" shape-rendering="crispEdges" style="fill:#f3f3f3;opacity:255"/><path d="M24 8h1v1h-1zm1 0h1v1h-1z" shape-rendering="crispEdges" style="fill:#a2a2a2;opacity:255"/><path d="M26 8h1v1h-1zm1 0h1v1h-1z" shape-rendering="crispEdges" style="fill:#797979;opacity:255"/><path d="M0 9h1v1H0zm1 0h1v1H1z" shape-rendering="crispEdges" style="fill:#e3e3e3;opacity:255"/><path d="M2 9h1v1H2zm1 0h1v1H3z" shape-rendering="crispEdges" style="fill:#d3d3d3;opacity:255"/><path d="M4 9h1v1H4zm1 0h1v1H5z" shape-rendering="crispEdges" style="fill:#f3f3f3;opacity:255"/><path d="M6 9h1v1H6zm1 0h1v1H7z" shape-rendering="crispEdges" style="fill:#d3d3d3;opacity:255"/><path d="M8 9h1v1H8zm1 0h1v1H9z" shape-rendering="crispEdges" style="fill:#c3c3c3;opacity:255"/><path d="M10 9h1v1h-1zm1 0h1v1h-1z" shape-rendering="crispEdges" style="fill:#f3f3f3;opacity:255"/><path d="M12 9h1v1h-1zm1 0h1v1h-1z" shape-rendering="crispEdges" style="fill:#c3c3c3;opacity:255"/><path d="M14 9h1v1h-1zm1 0h1v1h-1z" shape-rendering="crispEdges" style="fill:#b2b2b2;opacity:255"/><path d="M16 9h1v1h-1zm1 0h1v1h-1z" shape-rendering="crispEdges" style="fill:#f3f3f3;opacity:255"/><path d="M18 9h1v1h-1zm1 0h1v1h-1z" shape-rendering="crispEdges" style="fill:#b2b2b2;opacity:255"/><path d="M20 9h1v1h-1zm1 0h1v1h-1z" shape-rendering="crispEdges" style="fill:#a2a2a2;opacity:255"/><path d="M22 9h1v1h-1zm1 0h1v1h-1z" shape-rendering="crispEdges" style="fill:#f3f3f3;opacity:255"/><path d="M24 9h1v1h-1zm1 0h1v1h-1z" shape-rendering="crispEdges" style="fill:#a2a2a2;opacity:255"/><path d="M26 9h1v1h-1zm1 0h1v1h-1z" shape-rendering="crispEdges" style="fill:#797979;opacity:255"/><path d="M0 10h1v1H0zm1 0h1v1H1z" shape-rendering="crispEdges" style="fill:#e3e3e3;opacity:255"/><path d="M2 10h1v1H2zm1 0h1v1H3z" shape-rendering="crispEdges" style="fill:#d3d3d3;opacity:255"/><path d="M4 10h1v1H4zm1 0h1v1H5z" shape-rendering="crispEdges" style="fill:#f3f3f3;opacity:255"/><path d="M6 10h1v1H6zm1 0h1v1H7z" shape-rendering="crispEdges" style="fill:#d3d3d3;opacity:255"/><path d="M8 10h1v1H8zm1 0h1v1H9z" shape-rendering="crispEdges" style="fill:#c3c3c3;opacity:255"/><path d="M10 10h1v1h-1zm1 0h1v1h-1z" shape-rendering="crispEdges" style="fill:#f3f3f3;opacity:255"/><path d="M12 10h1v1h-1zm1 0h1v1h-1z" shape-rendering="crispEdges" style="fill:#c3c3c3;opacity:255"/><path d="M14 10h1v1h-1zm1 0h1v1h-1z" shape-rendering="crispEdges" style="fill:#b2b2b2;opacity:255"/><path d="M16 10h1v1h-1zm1 0h1v1h-1z" shape-rendering="crispEdges" style="fill:#f3f3f3;opacity:255"/><path d="M18 10h1v1h-1zm1 0h1v1h-1z" shape-rendering="crispEdges" style="fill:#b2b2b2;opacity:255"/><path d="M20 10h1v1h-1zm1 0h1v1h-1z" shape-rendering="crispEdges" style="fill:#a2a2a2;opacity:255"/><path d="M22 10h1v1h-1zm1 0h1v1h-1z" shape-rendering="crispEdges" style="fill:#f3f3f3;opacity:255"/><path d="M24 10h1v1h-1zm1 0h1v1h-1z" shape-rendering="crispEdges" style="fill:#a2a2a2;opacity:255"/><path d="M26 10h1v1h-1zm1 0h1v1h-1z" shape-rendering="crispEdges" style="fill:#797979;opacity:255"/><path d="M0 11h1v1H0zm1 0h1v1H1z" shape-rendering="crispEdges" style="fill:#e3e3e3;opacity:255"/><path d="M2 11h1v1H2zm1 0h1v1H3z" shape-rendering="crispEdges" style="fill:#d3d3d3;opacity:255"/><path d="M4 11h1v1H4zm1 0h1v1H5z" shape-rendering="crispEdges" style="fill:#f3f3f3;opacity:255"/><path d="M6 11h1v1H6zm1 0h1v1H7z" shape-rendering="crispEdges" style="fill:#d3d3d3;opacity:255"/><path d="M8 11h1v1H8zm1 0h1v1H9z" shape-rendering="crispEdges" style="fill:#c3c3c3;opacity:255"/><path d="M10 11h1v1h-1zm1 0h1v1h-1z" shape-rendering="crispEdges" style="fill:#f3f3f3;opacity:255"/><path d="M12 11h1v1h-1zm1 0h1v1h-1z" shape-rendering="crispEdges" style="fill:#c3c3c3;opacity:255"/><path d="M14 11h1v1h-1zm1 0h1v1h-1z" shape-rendering="crispEdges" style="fill:#b2b2b2;opacity:255"/><path d="M16 11h1v1h-1zm1 0h1v1h-1z" shape-rendering="crispEdges" style="fill:#f3f3f3;opacity:255"/><path d="M18 11h1v1h-1zm1 0h1v1h-1z" shape-rendering="crispEdges" style="fill:#b2b2b2;opacity:255"/><path d="M20 11h1v1h-1zm1 0h1v1h-1z" shape-rendering="crispEdges" style="fill:#a2a2a2;opacity:255"/><path d="M22 11h1v1h-1zm1 0h1v1h-1z" shape-rendering="crispEdges" style="fill:#f3f3f3;opacity:255"/><path d="M24 11h1v1h-1zm1 0h1v1h-1z" shape-rendering="crispEdges" style="fill:#a2a2a2;opacity:255"/><path d="M26 11h1v1h-1zm1 0h1v1h-1z" shape-rendering="crispEdges" style="fill:#797979;opacity:255"/><path d="M0 12h1v1H0zm1 0h1v1H1z" shape-rendering="crispEdges" style="fill:#e3e3e3;opacity:255"/><path d="M2 12h1v1H2zm1 0h1v1H3z" shape-rendering="crispEdges" style="fill:#d3d3d3;opacity:255"/><path d="M4 12h1v1H4zm1 0h1v1H5z" shape-rendering="crispEdges" style="fill:#f3f3f3;opacity:255"/><path d="M6 12h1v1H6zm1 0h1v1H7z" shape-rendering="crispEdges" style="fill:#d3d3d3;opacity:255"/><path d="M8 12h1v1H8zm1 0h1v1H9z" shape-rendering="crispEdges" style="fill:#c3c3c3;opacity:255"/><path d="M10 12h1v1h-1zm1 0h1v1h-1z" shape-rendering="crispEdges" style="fill:#f3f3f3;opacity:255"/><path d="M12 12h1v1h-1zm1 0h1v1h-1z" shape-rendering="crispEdges" style="fill:#c3c3c3;opacity:255"/><path d="M14 12h1v1h-1zm1 0h1v1h-1z" shape-rendering="crispEdges" style="fill:#b2b2b2;opacity:255"/><path d="M16 12h1v1h-1zm1 0h1v1h-1z" shape-rendering="crispEdges" style="fill:#f3f3f3;opacity:255"/><path d="M18 12h1v1h-1zm1 0h1v1h-1z" shape-rendering="crispEdges" style="fill:#b2b2b2;opacity:255"/><path d="M20 12h1v1h-1zm1 0h1v1h-1z" shape-rendering="crispEdges" style="fill:#a2a2a2;opacity:255"/><path d="M22 12h1v1h-1zm1 0h1v1h-1z" shape-rendering="crispEdges" style="fill:#f3f3f3;opacity:255"/><path d="M24 12h1v1h-1zm1 0h1v1h-1z" shape-rendering="crispEdges" style="fill:#a2a2a2;opacity:255"/><path d="M26 12h1v1h-1zm1 0h1v1h-1z" shape-rendering="crispEdges" style="fill:#797979;opacity:255"/><path d="M0 13h1v1H0zm1 0h1v1H1z" shape-rendering="crispEdges" style="fill:#e3e3e3;opacity:255"/><path d="M2 13h1v1H2zm1 0h1v1H3z" shape-rendering="crispEdges" style="fill:#d3d3d3;opacity:255"/><path d="M4 13h1v1H4zm1 0h1v1H5z" shape-rendering="crispEdges" style="fill:#f3f3f3;opacity:255"/><path d="M6 13h1v1H6zm1 0h1v1H7z" shape-rendering="crispEdges" style="fill:#d3d3d3;opacity:255"/><path d="M8 13h1v1H8zm1 0h1v1H9z" shape-rendering="crispEdges" style="fill:#c3c3c3;opacity:255"/><path d="M10 13h1v1h-1zm1 0h1v1h-1z" shape-rendering="crispEdges" style="fill:#f3f3f3;opacity:255"/><path d="M12 13h1v1h-1zm1 0h1v1h-1z" shape-rendering="crispEdges" style="fill:#c3c3c3;opacity:255"/><path d="M14 13h1v1h-1zm1 0h1v1h-1z" shape-rendering="crispEdges" style="fill:#b2b2b2;opacity:255"/><path d="M16 13h1v1h-1zm1 0h1v1h-1z" shape-rendering="crispEdges" style="fill:#f3f3f3;opacity:255"/><path d="M18 13h1v1h-1zm1 0h1v1h-1z" shape-rendering="crispEdges" style="fill:#b2b2b2;opacity:255"/><path d="M20 13h1v1h-1zm1 0h1v1h-1z" shape-rendering="crispEdges" style="fill:#a2a2a2;opacity:255"/><path d="M22 13h1v1h-1zm1 0h1v1h-1z" shape-rendering="crispEdges" style="fill:#f3f3f3;opacity:255"/><path d="M24 13h1v1h-1zm1 0h1v1h-1z" shape-rendering="crispEdges" style="fill:#a2a2a2;opacity:255"/><path d="M26 13h1v1h-1zm1 0h1v1h-1z" shape-rendering="crispEdges" style="fill:#797979;opacity:255"/><path d="M0 14h1v1H0zm1 0h1v1H1z" shape-rendering="crispEdges" style="fill:#e3e3e3;opacity:255"/><path d="M2 14h1v1H2zm1 0h1v1H3z" shape-rendering="crispEdges" style="fill:#d3d3d3;opacity:255"/><path d="M4 14h1v1H4zm1 0h1v1H5z" shape-rendering="crispEdges" style="fill:#f3f3f3;opacity:255"/><path d="M6 14h1v1H6zm1 0h1v1H7z" shape-rendering="crispEdges" style="fill:#d3d3d3;opacity:255"/><path d="M8 14h1v1H8zm1 0h1v1H9z" shape-rendering="crispEdges" style="fill:#c3c3c3;opacity:255"/><path d="M10 14h1v1h-1zm1 0h1v1h-1z" shape-rendering="crispEdges" style="fill:#f3f3f3;opacity:255"/><path d="M12 14h1v1h-1zm1 0h1v1h-1z" shape-rendering="crispEdges" style="fill:#c3c3c3;opacity:255"/><path d="M14 14h1v1h-1zm1 0h1v1h-1z" shape-rendering="crispEdges" style="fill:#b2b2b2;opacity:255"/><path d="M16 14h1v1h-1zm1 0h1v1h-1z" shape-rendering="crispEdges" style="fill:#f3f3f3;opacity:255"/><path d="M18 14h1v1h-1zm1 0h1v1h-1z" shape-rendering="crispEdges" style="fill:#b2b2b2;opacity:255"/><path d="M20 14h1v1h-1zm1 0h1v1h-1z" shape-rendering="crispEdges" style="fill:#a2a2a2;opacity:255"/><path d="M22 14h1v1h-1zm1 0h1v1h-1z" shape-rendering="crispEdges" style="fill:#f3f3f3;opacity:255"/><path d="M24 14h1v1h-1zm1 0h1v1h-1z" shape-rendering="crispEdges" style="fill:#a2a2a2;opacity:255"/><path d="M26 14h1v1h-1zm1 0h1v1h-1z" shape-rendering="crispEdges" style="fill:#797979;opacity:255"/><path d="M0 15h1v1H0zm1 0h1v1H1z" shape-rendering="crispEdges" style="fill:#e3e3e3;opacity:255"/><path d="M2 15h1v1H2zm1 0h1v1H3z" shape-rendering="crispEdges" style="fill:#d3d3d3;opacity:255"/><path d="M4 15h1v1H4zm1 0h1v1H5z" shape-rendering="crispEdges" style="fill:#f3f3f3;opacity:255"/><path d="M6 15h1v1H6zm1 0h1v1H7z" shape-rendering="crispEdges" style="fill:#d3d3d3;opacity:255"/><path d="M8 15h1v1H8zm1 0h1v1H9z" shape-rendering="crispEdges" style="fill:#c3c3c3;opacity:255"/><path d="M10 15h1v1h-1zm1 0h1v1h-1z" shape-rendering="crispEdges" style="fill:#f3f3f3;opacity:255"/><path d="M12 15h1v1h-1zm1 0h1v1h-1z" shape-rendering="crispEdges" style="fill:#c3c3c3;opacity:255"/><path d="M14 15h1v1h-1zm1 0h1v1h-1z" shape-rendering="crispEdges" style="fill:#b2b2b2;opacity:255"/><path d="M16 15h1v1h-1zm1 0h1v1h-1z" shape-rendering="crispEdges" style="fill:#f3f3f3;opacity:255"/><path d="M18 15h1v1h-1zm1 0h1v1h-1z" shape-rendering="crispEdges" style="fill:#b2b2b2;opacity:255"/><path d="M20 15h1v1h-1zm1 0h1v1h-1z" shape-rendering="crispEdges" style="fill:#a2a2a2;opacity:255"/><path d="M22 15h1v1h-1zm1 0h1v1h-1z" shape-rendering="crispEdges" style="fill:#f3f3f3;opacity:255"/><path d="M24 15h1v1h-1zm1 0h1v1h-1z" shape-rendering="crispEdges" style="fill:#a2a2a2;opacity:255"/><path d="M26 15h1v1h-1zm1 0h1v1h-1z" shape-rendering="crispEdges" style="fill:#797979;opacity:255"/><path d="M0 16h1v1H0zm1 0h1v1H1z" shape-rendering="crispEdges" style="fill:#e3e3e3;opacity:255"/><path d="M2 16h1v1H2zm1 0h1v1H3z" shape-rendering="crispEdges" style="fill:#d3d3d3;opacity:255"/><path d="M4 16h1v1H4zm1 0h1v1H5z" shape-rendering="crispEdges" style="fill:#f3f3f3;opacity:255"/><path d="M6 16h1v1H6zm1 0h1v1H7z" shape-rendering="crispEdges" style="fill:#d3d3d3;opacity:255"/><path d="M8 16h1v1H8zm1 0h1v1H9z" shape-rendering="crispEdges" style="fill:#c3c3c3;opacity:255"/><path d="M10 16h1v1h-1zm1 0h1v1h-1z" shape-rendering="crispEdges" style="fill:#f3f3f3;opacity:255"/><path d="M12 16h1v1h-1zm1 0h1v1h-1z" shape-rendering="crispEdges" style="fill:#c3c3c3;opacity:255"/><path d="M14 16h1v1h-1zm1 0h1v1h-1z" shape-rendering="crispEdges" style="fill:#b2b2b2;opacity:255"/><path d="M16 16h1v1h-1zm1 0h1v1h-1z" shape-rendering="crispEdges" style="fill:#f3f3f3;opacity:255"/><path d="M18 16h1v1h-1zm1 0h1v1h-1z" shape-rendering="crispEdges" style="fill:#b2b2b2;opacity:255"/><path d="M20 16h1v1h-1zm1 0h1v1h-1z" shape-rendering="crispEdges" style="fill:#a2a2a2;opacity:255"/><path d="M22 16h1v1h-1zm1 0h1v1h-1z" shape-rendering="crispEdges" style="fill:#f3f3f3;opacity:255"/><path d="M24 16h1v1h-1zm1 0h1v1h-1z" shape-rendering="crispEdges" style="fill:#a2a2a2;opacity:255"/><path d="M26 16h1v1h-1zm1 0h1v1h-1z" shape-rendering="crispEdges" style="fill:#797979;opacity:255"/><path d="M0 17h1v1H0zm1 0h1v1H1z" shape-rendering="crispEdges" style="fill:#e3e3e3;opacity:255"/><path d="M2 17h1v1H2zm1 0h1v1H3z" shape-rendering="crispEdges" style="fill:#d3d3d3;opacity:255"/><path d="M4 17h1v1H4zm1 0h1v1H5z" shape-rendering="crispEdges" style="fill:#f3f3f3;opacity:255"/><path d="M6 17h1v1H6zm1 0h1v1H7z" shape-rendering="crispEdges" style="fill:#d3d3d3;opacity:255"/><path d="M8 17h1v1H8zm1 0h1v1H9z" shape-rendering="crispEdges" style="fill:#c3c3c3;opacity:255"/><path d="M10 17h1v1h-1zm1 0h1v1h-1z" shape-rendering="crispEdges" style="fill:#f3f3f3;opacity:255"/><path d="M12 17h1v1h-1zm1 0h1v1h-1z" shape-rendering="crispEdges" style="fill:#c3c3c3;opacity:255"/><path d="M14 17h1v1h-1zm1 0h1v1h-1z" shape-rendering="crispEdges" style="fill:#b2b2b2;opacity:255"/><path d="M16 17h1v1h-1zm1 0h1v1h-1z" shape-rendering="crispEdges" style="fill:#f3f3f3;opacity:255"/><path d="M18 17h1v1h-1zm1 0h1v1h-1z" shape-rendering="crispEdges" style="fill:#b2b2b2;opacity:255"/><path d="M20 17h1v1h-1zm1 0h1v1h-1z" shape-rendering="crispEdges" style="fill:#a2a2a2;opacity:255"/><path d="M22 17h1v1h-1zm1 0h1v1h-1z" shape-rendering="crispEdges" style="fill:#f3f3f3;opacity:255"/><path d="M24 17h1v1h-1zm1 0h1v1h-1z" shape-rendering="crispEdges" style="fill:#a2a2a2;opacity:255"/><path d="M26 17h1v1h-1zm1 0h1v1h-1z" shape-rendering="crispEdges" style="fill:#797979;opacity:255"/><path d="M0 18h1v1H0zm1 0h1v1H1z" shape-rendering="crispEdges" style="fill:#e3e3e3;opacity:255"/><path d="M2 18h1v1H2zm1 0h1v1H3z" shape-rendering="crispEdges" style="fill:#d3d3d3;opacity:255"/><path d="M4 18h1v1H4zm1 0h1v1H5z" shape-rendering="crispEdges" style="fill:#f3f3f3;opacity:255"/><path d="M6 18h1v1H6zm1 0h1v1H7z" shape-rendering="crispEdges" style="fill:#d3d3d3;opacity:255"/><path d="M8 18h1v1H8zm1 0h1v1H9z" shape-rendering="crispEdges" style="fill:#c3c3c3;opacity:255"/><path d="M10 18h1v1h-1zm1 0h1v1h-1z" shape-rendering="crispEdges" style="fill:#f3f3f3;opacity:255"/><path d="M12 18h1v1h-1zm1 0h1v1h-1z" shape-rendering="crispEdges" style="fill:#c3c3c3;opacity:255"/><path d="M14 18h1v1h-1zm1 0h1v1h-1z" shape-rendering="crispEdges" style="fill:#b2b2b2;opacity:255"/><path d="M16 18h1v1h-1zm1 0h1v1h-1z" shape-rendering="crispEdges" style="fill:#f3f3f3;opacity:255"/><path d="M18 18h1v1h-1zm1 0h1v1h-1z" shape-rendering="crispEdges" style="fill:#b2b2b2;opacity:255"/><path d="M20 18h1v1h-1zm1 0h1v1h-1z" shape-rendering="crispEdges" style="fill:#a2a2a2;opacity:255"/><path d="M22 18h1v1h-1zm1 0h1v1h-1z" shape-rendering="crispEdges" style="fill:#f3f3f3;opacity:255"/><path d="M24 18h1v1h-1zm1 0h1v1h-1z" shape-rendering="crispEdges" style="fill:#a2a2a2;opacity:255"/><path d="M26 18h1v1h-1zm1 0h1v1h-1z" shape-rendering="crispEdges" style="fill:#797979;opacity:255"/><path d="M0 19h1v1H0zm1 0h1v1H1z" shape-rendering="crispEdges" style="fill:#e3e3e3;opacity:255"/><path d="M2 19h1v1H2zm1 0h1v1H3z" shape-rendering="crispEdges" style="fill:#d3d3d3;opacity:255"/><path d="M4 19h1v1H4zm1 0h1v1H5z" shape-rendering="crispEdges" style="fill:#f3f3f3;opacity:255"/><path d="M6 19h1v1H6zm1 0h1v1H7z" shape-rendering="crispEdges" style="fill:#d3d3d3;opacity:255"/><path d="M8 19h1v1H8zm1 0h1v1H9z" shape-rendering="crispEdges" style="fill:#c3c3c3;opacity:255"/><path d="M10 19h1v1h-1zm1 0h1v1h-1z" shape-rendering="crispEdges" style="fill:#f3f3f3;opacity:255"/><path d="M12 19h1v1h-1zm1 0h1v1h-1z" shape-rendering="crispEdges" style="fill:#c3c3c3;opacity:255"/><path d="M14 19h1v1h-1zm1 0h1v1h-1z" shape-rendering="crispEdges" style="fill:#b2b2b2;opacity:255"/><path d="M16 19h1v1h-1zm1 0h1v1h-1z" shape-rendering="crispEdges" style="fill:#f3f3f3;opacity:255"/><path d="M18 19h1v1h-1zm1 0h1v1h-1z" shape-rendering="crispEdges" style="fill:#b2b2b2;opacity:255"/><path d="M20 19h1v1h-1zm1 0h1v1h-1z" shape-rendering="crispEdges" style="fill:#a2a2a2;opacity:255"/><path d="M22 19h1v1h-1zm1 0h1v1h-1z" shape-rendering="crispEdges" style="fill:#f3f3f3;opacity:255"/><path d="M24 19h1v1h-1zm1 0h1v1h-1z" shape-rendering="crispEdges" style="fill:#a2a2a2;opacity:255"/><path d="M26 19h1v1h-1zm1 0h1v1h-1z" shape-rendering="crispEdges" style="fill:#797979;opacity:255"/><path d="M0 20h1v1H0zm1 0h1v1H1z" shape-rendering="crispEdges" style="fill:#e3e3e3;opacity:255"/><path d="M2 20h1v1H2zm1 0h1v1H3z" shape-rendering="crispEdges" style="fill:#d3d3d3;opacity:255"/><path d="M4 20h1v1H4zm1 0h1v1H5z" shape-rendering="crispEdges" style="fill:#f3f3f3;opacity:255"/><path d="M6 20h1v1H6zm1 0h1v1H7z" shape-rendering="crispEdges" style="fill:#d3d3d3;opacity:255"/><path d="M8 20h1v1H8zm1 0h1v1H9z" shape-rendering="crispEdges" style="fill:#c3c3c3;opacity:255"/><path d="M10 20h1v1h-1zm1 0h1v1h-1z" shape-rendering="crispEdges" style="fill:#f3f3f3;opacity:255"/><path d="M12 20h1v1h-1zm1 0h1v1h-1z" shape-rendering="crispEdges" style="fill:#c3c3c3;opacity:255"/><path d="M14 20h1v1h-1zm1 0h1v1h-1z" shape-rendering="crispEdges" style="fill:#b2b2b2;opacity:255"/><path d="M16 20h1v1h-1zm1 0h1v1h-1z" shape-rendering="crispEdges" style="fill:#f3f3f3;opacity:255"/><path d="M18 20h1v1h-1zm1 0h1v1h-1z" shape-rendering="crispEdges" style="fill:#b2b2b2;opacity:255"/><path d="M20 20h1v1h-1zm1 0h1v1h-1z" shape-rendering="crispEdges" style="fill:#a2a2a2;opacity:255"/><path d="M22 20h1v1h-1zm1 0h1v1h-1z" shape-rendering="crispEdges" style="fill:#f3f3f3;opacity:255"/><path d="M24 20h1v1h-1zm1 0h1v1h-1z" shape-rendering="crispEdges" style="fill:#a2a2a2;opacity:255"/><path d="M26 20h1v1h-1zm1 0h1v1h-1z" shape-rendering="crispEdges" style="fill:#797979;opacity:255"/><path d="M0 21h1v1H0zm1 0h1v1H1z" shape-rendering="crispEdges" style="fill:#e3e3e3;opacity:255"/><path d="M2 21h1v1H2zm1 0h1v1H3z" shape-rendering="crispEdges" style="fill:#d3d3d3;opacity:255"/><path d="M4 21h1v1H4zm1 0h1v1H5z" shape-rendering="crispEdges" style="fill:#f3f3f3;opacity:255"/><path d="M6 21h1v1H6zm1 0h1v1H7z" shape-rendering="crispEdges" style="fill:#d3d3d3;opacity:255"/><path d="M8 21h1v1H8zm1 0h1v1H9z" shape-rendering="crispEdges" style="fill:#c3c3c3;opacity:255"/><path d="M10 21h1v1h-1zm1 0h1v1h-1z" shape-rendering="crispEdges" style="fill:#f3f3f3;opacity:255"/><path d="M12 21h1v1h-1zm1 0h1v1h-1z" shape-rendering="crispEdges" style="fill:#c3c3c3;opacity:255"/><path d="M14 21h1v1h-1zm1 0h1v1h-1z" shape-rendering="crispEdges" style="fill:#b2b2b2;opacity:255"/><path d="M16 21h1v1h-1zm1 0h1v1h-1z" shape-rendering="crispEdges" style="fill:#f3f3f3;opacity:255"/><path d="M18 21h1v1h-1zm1 0h1v1h-1z" shape-rendering="crispEdges" style="fill:#b2b2b2;opacity:255"/><path d="M20 21h1v1h-1zm1 0h1v1h-1z" shape-rendering="crispEdges" style="fill:#a2a2a2;opacity:255"/><path d="M22 21h1v1h-1zm1 0h1v1h-1z" shape-rendering="crispEdges" style="fill:#f3f3f3;opacity:255"/><path d="M24 21h1v1h-1zm1 0h1v1h-1z" shape-rendering="crispEdges" style="fill:#a2a2a2;opacity:255"/><path d="M26 21h1v1h-1zm1 0h1v1h-1z" shape-rendering="crispEdges" style="fill:#797979;opacity:255"/><path d="M0 22h1v1H0zm1 0h1v1H1z" shape-rendering="crispEdges" style="fill:#e3e3e3;opacity:255"/><path d="M2 22h1v1H2zm1 0h1v1H3z" shape-rendering="crispEdges" style="fill:#d3d3d3;opacity:255"/><path d="M4 22h1v1H4zm1 0h1v1H5z" shape-rendering="crispEdges" style="fill:#f3f3f3;opacity:255"/><path d="M6 22h1v1H6zm1 0h1v1H7z" shape-rendering="crispEdges" style="fill:#d3d3d3;opacity:255"/><path d="M8 22h1v1H8zm1 0h1v1H9z" shape-rendering="crispEdges" style="fill:#c3c3c3;opacity:255"/><path d="M10 22h1v1h-1zm1 0h1v1h-1z" shape-rendering="crispEdges" style="fill:#f3f3f3;opacity:255"/><path d="M12 22h1v1h-1zm1 0h1v1h-1z" shape-rendering="crispEdges" style="fill:#c3c3c3;opacity:255"/><path d="M14 22h1v1h-1zm1 0h1v1h-1z" shape-rendering="crispEdges" style="fill:#b2b2b2;opacity:255"/><path d="M16 22h1v1h-1zm1 0h1v1h-1z" shape-rendering="crispEdges" style="fill:#f3f3f3;opacity:255"/><path d="M18 22h1v1h-1zm1 0h1v1h-1z" shape-rendering="crispEdges" style="fill:#b2b2b2;opacity:255"/><path d="M20 22h1v1h-1zm1 0h1v1h-1z" shape-rendering="crispEdges" style="fill:#a2a2a2;opacity:255"/><path d="M22 22h1v1h-1zm1 0h1v1h-1z" shape-rendering="crispEdges" style="fill:#f3f3f3;opacity:255"/><path d="M24 22h1v1h-1zm1 0h1v1h-1z" shape-rendering="crispEdges" style="fill:#a2a2a2;opacity:255"/><path d="M26 22h1v1h-1zm1 0h1v1h-1z" shape-rendering="crispEdges" style="fill:#797979;opacity:255"/><path d="M0 23h1v1H0zm1 0h1v1H1z" shape-rendering="crispEdges" style="fill:#e3e3e3;opacity:255"/><path d="M2 23h1v1H2zm1 0h1v1H3z" shape-rendering="crispEdges" style="fill:#d3d3d3;opacity:255"/><path d="M4 23h1v1H4zm1 0h1v1H5z" shape-rendering="crispEdges" style="fill:#f3f3f3;opacity:255"/><path d="M6 23h1v1H6zm1 0h1v1H7z" shape-rendering="crispEdges" style="fill:#d3d3d3;opacity:255"/><path d="M8 23h1v1H8zm1 0h1v1H9z" shape-rendering="crispEdges" style="fill:#c3c3c3;opacity:255"/><path d="M10 23h1v1h-1zm1 0h1v1h-1z" shape-rendering="crispEdges" style="fill:#f3f3f3;opacity:255"/><path d="M12 23h1v1h-1zm1 0h1v1h-1z" shape-rendering="crispEdges" style="fill:#c3c3c3;opacity:255"/><path d="M14 23h1v1h-1zm1 0h1v1h-1z" shape-rendering="crispEdges" style="fill:#b2b2b2;opacity:255"/><path d="M16 23h1v1h-1zm1 0h1v1h-1z" shape-rendering="crispEdges" style="fill:#f3f3f3;opacity:255"/><path d="M18 23h1v1h-1zm1 0h1v1h-1z" shape-rendering="crispEdges" style="fill:#b2b2b2;opacity:255"/><path d="M20 23h1v1h-1zm1 0h1v1h-1z" shape-rendering="crispEdges" style="fill:#a2a2a2;opacity:255"/><path d="M22 23h1v1h-1zm1 0h1v1h-1z" shape-rendering="crispEdges" style="fill:#f3f3f3;opacity:255"/><path d="M24 23h1v1h-1zm1 0h1v1h-1z" shape-rendering="crispEdges" style="fill:#a2a2a2;opacity:255"/><path d="M26 23h1v1h-1zm1 0h1v1h-1z" shape-rendering="crispEdges" style="fill:#797979;opacity:255"/><path d="M0 24h1v1H0zm1 0h1v1H1z" shape-rendering="crispEdges" style="fill:#e3e3e3;opacity:255"/><path d="M2 24h1v1H2zm1 0h1v1H3z" shape-rendering="crispEdges" style="fill:#d3d3d3;opacity:255"/><path d="M4 24h1v1H4zm1 0h1v1H5z" shape-rendering="crispEdges" style="fill:#f3f3f3;opacity:255"/><path d="M6 24h1v1H6zm1 0h1v1H7z" shape-rendering="crispEdges" style="fill:#d3d3d3;opacity:255"/><path d="M8 24h1v1H8zm1 0h1v1H9z" shape-rendering="crispEdges" style="fill:#c3c3c3;opacity:255"/><path d="M10 24h1v1h-1zm1 0h1v1h-1z" shape-rendering="crispEdges" style="fill:#f3f3f3;opacity:255"/><path d="M12 24h1v1h-1zm1 0h1v1h-1z" shape-rendering="crispEdges" style="fill:#c3c3c3;opacity:255"/><path d="M14 24h1v1h-1zm1 0h1v1h-1z" shape-rendering="crispEdges" style="fill:#b2b2b2;opacity:255"/><path d="M16 24h1v1h-1zm1 0h1v1h-1z" shape-rendering="crispEdges" style="fill:#f3f3f3;opacity:255"/><path d="M18 24h1v1h-1zm1 0h1v1h-1z" shape-rendering="crispEdges" style="fill:#b2b2b2;opacity:255"/><path d="M20 24h1v1h-1zm1 0h1v1h-1z" shape-rendering="crispEdges" style="fill:#a2a2a2;opacity:255"/><path d="M22 24h1v1h-1zm1 0h1v1h-1z" shape-rendering="crispEdges" style="fill:#f3f3f3;opacity:255"/><path d="M24 24h1v1h-1zm1 0h1v1h-1z" shape-rendering="crispEdges" style="fill:#a2a2a2;opacity:255"/><path d="M26 24h1v1h-1zm1 0h1v1h-1z" shape-rendering="crispEdges" style="fill:#797979;opacity:255"/><path d="M0 25h1v1H0zm1 0h1v1H1z" shape-rendering="crispEdges" style="fill:#e3e3e3;opacity:255"/><path d="M2 25h1v1H2zm1 0h1v1H3z" shape-rendering="crispEdges" style="fill:#d3d3d3;opacity:255"/><path d="M4 25h1v1H4zm1 0h1v1H5z" shape-rendering="crispEdges" style="fill:#f3f3f3;opacity:255"/><path d="M6 25h1v1H6zm1 0h1v1H7z" shape-rendering="crispEdges" style="fill:#d3d3d3;opacity:255"/><path d="M8 25h1v1H8zm1 0h1v1H9z" shape-rendering="crispEdges" style="fill:#c3c3c3;opacity:255"/><path d="M10 25h1v1h-1zm1 0h1v1h-1z" shape-rendering="crispEdges" style="fill:#f3f3f3;opacity:255"/><path d="M12 25h1v1h-1zm1 0h1v1h-1z" shape-rendering="crispEdges" style="fill:#c3c3c3;opacity:255"/><path d="M14 25h1v1h-1zm1 0h1v1h-1z" shape-rendering="crispEdges" style="fill:#b2b2b2;opacity:255"/><path d="M16 25h1v1h-1zm1 0h1v1h-1z" shape-rendering="crispEdges" style="fill:#f3f3f3;opacity:255"/><path d="M18 25h1v1h-1zm1 0h1v1h-1z" shape-rendering="crispEdges" style="fill:#b2b2b2;opacity:255"/><path d="M20 25h1v1h-1zm1 0h1v1h-1z" shape-rendering="crispEdges" style="fill:#a2a2a2;opacity:255"/><path d="M22 25h1v1h-1zm1 0h1v1h-1z" shape-rendering="crispEdges" style="fill:#f3f3f3;opacity:255"/><path d="M24 25h1v1h-1zm1 0h1v1h-1z" shape-rendering="crispEdges" style="fill:#a2a2a2;opacity:255"/><path d="M26 25h1v1h-1zm1 0h1v1h-1z" shape-rendering="crispEdges" style="fill:#797979;opacity:255"/><path d="M0 26h1v1H0zm1 0h1v1H1z" shape-rendering="crispEdges" style="fill:#e3e3e3;opacity:255"/><path d="M2 26h1v1H2zm1 0h1v1H3z" shape-rendering="crispEdges" style="fill:#d3d3d3;opacity:255"/><path d="M4 26h1v1H4zm1 0h1v1H5z" shape-rendering="crispEdges" style="fill:#f3f3f3;opacity:255"/><path d="M6 26h1v1H6zm1 0h1v1H7z" shape-rendering="crispEdges" style="fill:#d3d3d3;opacity:255"/><path d="M8 26h1v1H8zm1 0h1v1H9z" shape-rendering="crispEdges" style="fill:#c3c3c3;opacity:255"/><path d="M10 26h1v1h-1zm1 0h1v1h-1z" shape-rendering="crispEdges" style="fill:#f3f3f3;opacity:255"/><path d="M12 26h1v1h-1zm1 0h1v1h-1z" shape-rendering="crispEdges" style="fill:#c3c3c3;opacity:255"/><path d="M14 26h1v1h-1zm1 0h1v1h-1z" shape-rendering="crispEdges" style="fill:#b2b2b2;opacity:255"/><path d="M16 26h1v1h-1zm1 0h1v1h-1z" shape-rendering="crispEdges" style="fill:#f3f3f3;opacity:255"/><path d="M18 26h1v1h-1zm1 0h1v1h-1z" shape-rendering="crispEdges" style="fill:#b2b2b2;opacity:255"/><path d="M20 26h1v1h-1zm1 0h1v1h-1z" shape-rendering="crispEdges" style="fill:#a2a2a2;opacity:255"/><path d="M22 26h1v1h-1zm1 0h1v1h-1z" shape-rendering="crispEdges" style="fill:#f3f3f3;opacity:255"/><path d="M24 26h1v1h-1zm1 0h1v1h-1z" shape-rendering="crispEdges" style="fill:#a2a2a2;opacity:255"/><path d="M26 26h1v1h-1zm1 0h1v1h-1z" shape-rendering="crispEdges" style="fill:#797979;opacity:255"/><path d="M0 27h1v1H0zm1 0h1v1H1z" shape-rendering="crispEdges" style="fill:#e3e3e3;opacity:255"/><path d="M2 27h1v1H2zm1 0h1v1H3z" shape-rendering="crispEdges" style="fill:#d3d3d3;opacity:255"/><path d="M4 27h1v1H4zm1 0h1v1H5z" shape-rendering="crispEdges" style="fill:#f3f3f3;opacity:255"/><path d="M6 27h1v1H6zm1 0h1v1H7z" shape-rendering="crispEdges" style="fill:#d3d3d3;opacity:255"/><path d="M8 27h1v1H8zm1 0h1v1H9z" shape-rendering="crispEdges" style="fill:#c3c3c3;opacity:255"/><path d="M10 27h1v1h-1zm1 0h1v1h-1z" shape-rendering="crispEdges" style="fill:#f3f3f3;opacity:255"/><path d="M12 27h1v1h-1zm1 0h1v1h-1z" shape-rendering="crispEdges" style="fill:#c3c3c3;opacity:255"/><path d="M14 27h1v1h-1zm1 0h1v1h-1z" shape-rendering="crispEdges" style="fill:#b2b2b2;opacity:255"/><path d="M16 27h1v1h-1zm1 0h1v1h-1z" shape-rendering="crispEdges" style="fill:#f3f3f3;opacity:255"/><path d="M18 27h1v1h-1zm1 0h1v1h-1z" shape-rendering="crispEdges" style="fill:#b2b2b2;opacity:255"/><path d="M20 27h1v1h-1zm1 0h1v1h-1z" shape-rendering="crispEdges" style="fill:#a2a2a2;opacity:255"/><path d="M22 27h1v1h-1zm1 0h1v1h-1z" shape-rendering="crispEdges" style="fill:#f3f3f3;opacity:255"/><path d="M24 27h1v1h-1zm1 0h1v1h-1z" shape-rendering="crispEdges" style="fill:#a2a2a2;opacity:255"/><path d="M26 27h1v1h-1zm1 0h1v1h-1z" shape-rendering="crispEdges" style="fill:#797979;opacity:255"/><path d="M0 28h1v1H0zm1 0h1v1H1z" shape-rendering="crispEdges" style="fill:#e3e3e3;opacity:255"/><path d="M2 28h1v1H2zm1 0h1v1H3z" shape-rendering="crispEdges" style="fill:#d3d3d3;opacity:255"/><path d="M4 28h1v1H4zm1 0h1v1H5z" shape-rendering="crispEdges" style="fill:#f3f3f3;opacity:255"/><path d="M6 28h1v1H6zm1 0h1v1H7z" shape-rendering="crispEdges" style="fill:#d3d3d3;opacity:255"/><path d="M8 28h1v1H8zm1 0h1v1H9z" shape-rendering="crispEdges" style="fill:#c3c3c3;opacity:255"/><path d="M10 28h1v1h-1zm1 0h1v1h-1z" shape-rendering="crispEdges" style="fill:#f3f3f3;opacity:255"/><path d="M12 28h1v1h-1zm1 0h1v1h-1z" shape-rendering="crispEdges" style="fill:#c3c3c3;opacity:255"/><path d="M14 28h1v1h-1zm1 0h1v1h-1z" shape-rendering="crispEdges" style="fill:#b2b2b2;opacity:255"/><path d="M16 28h1v1h-1zm1 0h1v1h-1z" shape-rendering="crispEdges" style="fill:#f3f3f3;opacity:255"/><path d="M18 28h1v1h-1zm1 0h1v1h-1z" shape-rendering="crispEdges" style="fill:#b2b2b2;opacity:255"/><path d="M20 28h1v1h-1zm1 0h1v1h-1z" shape-rendering="crispEdges" style="fill:#a2a2a2;opacity:255"/><path d="M22 28h1v1h-1zm1 0h1v1h-1z" shape-rendering="crispEdges" style="fill:#f3f3f3;opacity:255"/><path d="M24 28h1v1h-1zm1 0h1v1h-1z" shape-rendering="crispEdges" style="fill:#a2a2a2;opacity:255"/><path d="M26 28h1v1h-1zm1 0h1v1h-1z" shape-rendering="crispEdges" style="fill:#797979;opacity:255"/><path d="M0 29h1v1H0zm1 0h1v1H1z" shape-rendering="crispEdges" style="fill:#e3e3e3;opacity:255"/><path d="M2 29h1v1H2zm1 0h1v1H3z" shape-rendering="crispEdges" style="fill:#d3d3d3;opacity:255"/><path d="M4 29h1v1H4zm1 0h1v1H5z" shape-rendering="crispEdges" style="fill:#f3f3f3;opacity:255"/><path d="M6 29h1v1H6zm1 0h1v1H7z" shape-rendering="crispEdges" style="fill:#d3d3d3;opacity:255"/><path d="M8 29h1v1H8zm1 0h1v1H9z" shape-rendering="crispEdges" style="fill:#c3c3c3;opacity:255"/><path d="M10 29h1v1h-1zm1 0h1v1h-1z" shape-rendering="crispEdges" style="fill:#f3f3f3;opacity:255"/><path d="M12 29h1v1h-1zm1 0h1v1h-1z" shape-rendering="crispEdges" style="fill:#c3c3c3;opacity:255"/><path d="M14 29h1v1h-1zm1 0h1v1h-1z" shape-rendering="crispEdges" style="fill:#b2b2b2;opacity:255"/><path d="M16 29h1v1h-1zm1 0h1v1h-1z" shape-rendering="crispEdges" style="fill:#f3f3f3;opacity:255"/><path d="M18 29h1v1h-1zm1 0h1v1h-1z" shape-rendering="crispEdges" style="fill:#b2b2b2;opacity:255"/><path d="M20 29h1v1h-1zm1 0h1v1h-1z" shape-rendering="crispEdges" style="fill:#a2a2a2;opacity:255"/><path d="M22 29h1v1h-1zm1 0h1v1h-1z" shape-rendering="crispEdges" style="fill:#f3f3f3;opacity:255"/><path d="M24 29h1v1h-1zm1 0h1v1h-1z" shape-rendering="crispEdges" style="fill:#a2a2a2;opacity:255"/><path d="M26 29h1v1h-1zm1 0h1v1h-1z" shape-rendering="crispEdges" style="fill:#797979;opacity:255"/></svg>