<svg xmlns="http://www.w3.org/2000/svg" width="20" height="20" viewBox="0 0 20 20"><path d="M0 0h1v1H0zm1 0h1v1H1zm1 0h1v1H2zm1 0h1v1H3zm1 0h1v1H4zm1 0h1v1H5zm1 0h1v1H6zm1 0h1v1H7z" shape-rendering="crispEdges" style="fill:#000;opacity:255"/><path d="M8 0h1v1H8zm1 0h1v1H9zm1 0h1v1h-1zm1 0h1v1h-1z" shape-rendering="crispEdges" style="fill:#494949;opacity:255"/><path d="M12 0h1v1h-1zm1 0h1v1h-1zm1 0h1v1h-1zm1 0h1v1h-1zm1 0h1v1h-1zm1 0h1v1h-1zm1 0h1v1h-1zm1 0h1v1h-1zM0 1h1v1H0zm1 0h1v1H1zm1 0h1v1H2zm1 0h1v1H3zm1 0h1v1H4zm1 0h1v1H5zm1 0h1v1H6zm1 0h1v1H7z" shape-rendering="crispEdges" style="fill:#000;opacity:255"/><path d="M8 1h1v1H8zm1 0h1v1H9zm1 0h1v1h-1zm1 0h1v1h-1z" shape-rendering="crispEdges" style="fill:#494949;opacity:255"/><path d="M12 1h1v1h-1zm1 0h1v1h-1zm1 0h1v1h-1zm1 0h1v1h-1zm1 0h1v1h-1zm1 0h1v1h-1zm1 0h1v1h-1zm1 0h1v1h-1zM0 2h1v1H0zm1 0h1v1H1zm1 0h1v1H2zm1 0h1v1H3zm1 0h1v1H4zm1 0h1v1H5z" shape-rendering="crispEdges" style="fill:#000;opacity:255"/><path d="M6 2h1v1H6zm1 0h1v1H7zm5 0h1v1h-1zm1 0h1v1h-1z" shape-rendering="crispEdges" style="fill:#494949;opacity:255"/><path d="M14 2h1v1h-1zm1 0h1v1h-1zm1 0h1v1h-1zm1 0h1v1h-1zm1 0h1v1h-1zm1 0h1v1h-1zM0 3h1v1H0zm1 0h1v1H1zm1 0h1v1H2zm1 0h1v1H3zm1 0h1v1H4zm1 0h1v1H5z" shape-rendering="crispEdges" style="fill:#000;opacity:255"/><path d="M6 3h1v1H6zm1 0h1v1H7zm5 0h1v1h-1zm1 0h1v1h-1z" shape-rendering="crispEdges" style="fill:#494949;opacity:255"/><path d="M14 3h1v1h-1zm1 0h1v1h-1zm1 0h1v1h-1zm1 0h1v1h-1zm1 0h1v1h-1zm1 0h1v1h-1zM0 4h1v1H0zm1 0h1v1H1zm1 0h1v1H2zm1 0h1v1H3z" shape-rendering="crispEdges" style="fill:#000;opacity:255"/><path d="M4 4h1v1H4zm1 0h1v1H5zm9 0h1v1h-1zm1 0h1v1h-1z" shape-rendering="crispEdges" style="fill:#494949;opacity:255"/><path d="M16 4h1v1h-1zm1 0h1v1h-1zm1 0h1v1h-1zm1 0h1v1h-1zM0 5h1v1H0zm1 0h1v1H1zm1 0h1v1H2zm1 0h1v1H3z" shape-rendering="crispEdges" style="fill:#000;opacity:255"/><path d="M4 5h1v1H4zm1 0h1v1H5zm9 0h1v1h-1zm1 0h1v1h-1z" shape-rendering="crispEdges" style="fill:#494949;opacity:255"/><path d="M16 5h1v1h-1zm1 0h1v1h-1zm1 0h1v1h-1zm1 0h1v1h-1zM0 6h1v1H0zm1 0h1v1H1z" shape-rendering="crispEdges" style="fill:#000;opacity:255"/><path d="M2 6h1v1H2zm1 0h1v1H3zm13 0h1v1h-1zm1 0h1v1h-1z" shape-rendering="crispEdges" style="fill:#494949;opacity:255"/><path d="M18 6h1v1h-1zm1 0h1v1h-1zM0 7h1v1H0zm1 0h1v1H1z" shape-rendering="crispEdges" style="fill:#000;opacity:255"/><path d="M2 7h1v1H2zm1 0h1v1H3zm13 0h1v1h-1zm1 0h1v1h-1z" shape-rendering="crispEdges" style="fill:#494949;opacity:255"/><path d="M18 7h1v1h-1zm1 0h1v1h-1z" shape-rendering="crispEdges" style="fill:#000;opacity:255"/><path d="M0 8h1v1H0zm1 0h1v1H1zm17 0h1v1h-1zm1 0h1v1h-1zM0 9h1v1H0zm1 0h1v1H1zm17 0h1v1h-1zm1 0h1v1h-1zM0 10h1v1H0zm1 0h1v1H1zm17 0h1v1h-1zm1 0h1v1h-1zM0 11h1v1H0zm1 0h1v1H1zm17 0h1v1h-1zm1 0h1v1h-1z" shape-rendering="crispEdges" style="fill:#494949;opacity:255"/><path d="M0 12h1v1H0zm1 0h1v1H1z" shape-rendering="crispEdges" style="fill:#000;opacity:255"/><path d="M2 12h1v1H2zm1 0h1v1H3zm13 0h1v1h-1zm1 0h1v1h-1z" shape-rendering="crispEdges" style="fill:#494949;opacity:255"/><path d="M18 12h1v1h-1zm1 0h1v1h-1zM0 13h1v1H0zm1 0h1v1H1z" shape-rendering="crispEdges" style="fill:#000;opacity:255"/><path d="M2 13h1v1H2zm1 0h1v1H3zm13 0h1v1h-1zm1 0h1v1h-1z" shape-rendering="crispEdges" style="fill:#494949;opacity:255"/><path d="M18 13h1v1h-1zm1 0h1v1h-1zM0 14h1v1H0zm1 0h1v1H1zm1 0h1v1H2zm1 0h1v1H3z" shape-rendering="crispEdges" style="fill:#000;opacity:255"/><path d="M4 14h1v1H4zm1 0h1v1H5zm9 0h1v1h-1zm1 0h1v1h-1z" shape-rendering="crispEdges" style="fill:#494949;opacity:255"/><path d="M16 14h1v1h-1zm1 0h1v1h-1zm1 0h1v1h-1zm1 0h1v1h-1zM0 15h1v1H0zm1 0h1v1H1zm1 0h1v1H2zm1 0h1v1H3z" shape-rendering="crispEdges" style="fill:#000;opacity:255"/><path d="M4 15h1v1H4zm1 0h1v1H5zm9 0h1v1h-1zm1 0h1v1h-1z" shape-rendering="crispEdges" style="fill:#494949;opacity:255"/><path d="M16 15h1v1h-1zm1 0h1v1h-1zm1 0h1v1h-1zm1 0h1v1h-1zM0 16h1v1H0zm1 0h1v1H1zm1 0h1v1H2zm1 0h1v1H3zm1 0h1v1H4zm1 0h1v1H5z" shape-rendering="crispEdges" style="fill:#000;opacity:255"/><path d="M6 16h1v1H6zm1 0h1v1H7zm5 0h1v1h-1zm1 0h1v1h-1z" shape-rendering="crispEdges" style="fill:#494949;opacity:255"/><path d="M14 16h1v1h-1zm1 0h1v1h-1zm1 0h1v1h-1zm1 0h1v1h-1zm1 0h1v1h-1zm1 0h1v1h-1zM0 17h1v1H0zm1 0h1v1H1zm1 0h1v1H2zm1 0h1v1H3zm1 0h1v1H4zm1 0h1v1H5z" shape-rendering="crispEdges" style="fill:#000;opacity:255"/><path d="M6 17h1v1H6zm1 0h1v1H7zm5 0h1v1h-1zm1 0h1v1h-1z" shape-rendering="crispEdges" style="fill:#494949;opacity:255"/><path d="M14 17h1v1h-1zm1 0h1v1h-1zm1 0h1v1h-1zm1 0h1v1h-1zm1 0h1v1h-1zm1 0h1v1h-1zM0 18h1v1H0zm1 0h1v1H1zm1 0h1v1H2zm1 0h1v1H3zm1 0h1v1H4zm1 0h1v1H5zm1 0h1v1H6zm1 0h1v1H7z" shape-rendering="crispEdges" style="fill:#000;opacity:255"/><path d="M8 18h1v1H8zm1 0h1v1H9zm1 0h1v1h-1zm1 0h1v1h-1z" shape-rendering="crispEdges" style="fill:#494949;opacity:255"/><path d="M12 18h1v1h-1zm1 0h1v1h-1zm1 0h1v1h-1zm1 0h1v1h-1zm1 0h1v1h-1zm1 0h1v1h-1zm1 0h1v1h-1zm1 0h1v1h-1zM0 19h1v1H0zm1 0h1v1H1zm1 0h1v1H2zm1 0h1v1H3zm1 0h1v1H4zm1 0h1v1H5zm1 0h1v1H6zm1 0h1v1H7z" shape-rendering="crispEdges" style="fill:#000;opacity:255"/><path d="M8 19h1v1H8zm1 0h1v1H9zm1 0h1v1h-1zm1 0h1v1h-1z" shape-rendering="crispEdges" style="fill:#494949;opacity:255"/><path d="M12 19h1v1h-1zm1 0h1v1h-1zm1 0h1v1h-1zm1 0h1v1h-1zm1 0h1v1h-1zm1 0h1v1h-1zm1 0h1v1h-1zm1 0h1v1h-1z" shape-rendering="crispEdges" style="fill:#000;opacity:255"/></svg>