<svg xmlns="http://www.w3.org/2000/svg" width="20" height="20" viewBox="0 0 20 20"><path d="M0 0h1v1H0zm1 0h1v1H1zm1 0h1v1H2zm1 0h1v1H3zm1 0h1v1H4zm1 0h1v1H5zm1 0h1v1H6zm1 0h1v1H7zm1 0h1v1H8zm1 0h1v1H9zm1 0h1v1h-1zm1 0h1v1h-1zm1 0h1v1h-1zm1 0h1v1h-1zm1 0h1v1h-1zm1 0h1v1h-1zm1 0h1v1h-1zm1 0h1v1h-1zm1 0h1v1h-1zm1 0h1v1h-1zM0 1h1v1H0zm1 0h1v1H1zm1 0h1v1H2zm1 0h1v1H3zm1 0h1v1H4zm1 0h1v1H5zm1 0h1v1H6zm1 0h1v1H7zm1 0h1v1H8zm1 0h1v1H9zm1 0h1v1h-1zm1 0h1v1h-1zm1 0h1v1h-1zm1 0h1v1h-1zm1 0h1v1h-1zm1 0h1v1h-1zm1 0h1v1h-1zm1 0h1v1h-1zm1 0h1v1h-1zm1 0h1v1h-1zM0 2h1v1H0zm1 0h1v1H1zm1 0h1v1H2zm1 0h1v1H3zm1 0h1v1H4zm1 0h1v1H5zm1 0h1v1H6zm1 0h1v1H7z" shape-rendering="crispEdges" style="fill:#000;opacity:255"/><path d="M8 2h1v1H8zm1 0h1v1H9zm1 0h1v1h-1zm1 0h1v1h-1z" shape-rendering="crispEdges" style="fill:#fbfbfb;opacity:255"/><path d="M12 2h1v1h-1zm1 0h1v1h-1zm1 0h1v1h-1zm1 0h1v1h-1zm1 0h1v1h-1zm1 0h1v1h-1zm1 0h1v1h-1zm1 0h1v1h-1zM0 3h1v1H0zm1 0h1v1H1zm1 0h1v1H2zm1 0h1v1H3zm1 0h1v1H4zm1 0h1v1H5zm1 0h1v1H6zm1 0h1v1H7z" shape-rendering="crispEdges" style="fill:#000;opacity:255"/><path d="M8 3h1v1H8zm1 0h1v1H9zm1 0h1v1h-1zm1 0h1v1h-1z" shape-rendering="crispEdges" style="fill:#fbfbfb;opacity:255"/><path d="M12 3h1v1h-1zm1 0h1v1h-1zm1 0h1v1h-1zm1 0h1v1h-1zm1 0h1v1h-1zm1 0h1v1h-1zm1 0h1v1h-1zm1 0h1v1h-1zM0 4h1v1H0zm1 0h1v1H1zm1 0h1v1H2zm1 0h1v1H3zm1 0h1v1H4zm1 0h1v1H5z" shape-rendering="crispEdges" style="fill:#000;opacity:255"/><path d="M6 4h1v1H6zm1 0h1v1H7zm5 0h1v1h-1zm1 0h1v1h-1z" shape-rendering="crispEdges" style="fill:#fbfbfb;opacity:255"/><path d="M14 4h1v1h-1zm1 0h1v1h-1zm1 0h1v1h-1zm1 0h1v1h-1zm1 0h1v1h-1zm1 0h1v1h-1zM0 5h1v1H0zm1 0h1v1H1zm1 0h1v1H2zm1 0h1v1H3zm1 0h1v1H4zm1 0h1v1H5z" shape-rendering="crispEdges" style="fill:#000;opacity:255"/><path d="M6 5h1v1H6zm1 0h1v1H7zm5 0h1v1h-1zm1 0h1v1h-1z" shape-rendering="crispEdges" style="fill:#fbfbfb;opacity:255"/><path d="M14 5h1v1h-1zm1 0h1v1h-1zm1 0h1v1h-1zm1 0h1v1h-1zm1 0h1v1h-1zm1 0h1v1h-1zM0 6h1v1H0zm1 0h1v1H1zm1 0h1v1H2zm1 0h1v1H3z" shape-rendering="crispEdges" style="fill:#000;opacity:255"/><path d="M4 6h1v1H4zm1 0h1v1H5zm9 0h1v1h-1zm1 0h1v1h-1z" shape-rendering="crispEdges" style="fill:#fbfbfb;opacity:255"/><path d="M16 6h1v1h-1zm1 0h1v1h-1zm1 0h1v1h-1zm1 0h1v1h-1zM0 7h1v1H0zm1 0h1v1H1zm1 0h1v1H2zm1 0h1v1H3z" shape-rendering="crispEdges" style="fill:#000;opacity:255"/><path d="M4 7h1v1H4zm1 0h1v1H5zm9 0h1v1h-1zm1 0h1v1h-1z" shape-rendering="crispEdges" style="fill:#fbfbfb;opacity:255"/><path d="M16 7h1v1h-1zm1 0h1v1h-1zm1 0h1v1h-1zm1 0h1v1h-1zM0 8h1v1H0zm1 0h1v1H1z" shape-rendering="crispEdges" style="fill:#000;opacity:255"/><path d="M2 8h1v1H2zm1 0h1v1H3zm13 0h1v1h-1zm1 0h1v1h-1z" shape-rendering="crispEdges" style="fill:#fbfbfb;opacity:255"/><path d="M18 8h1v1h-1zm1 0h1v1h-1zM0 9h1v1H0zm1 0h1v1H1z" shape-rendering="crispEdges" style="fill:#000;opacity:255"/><path d="M2 9h1v1H2zm1 0h1v1H3zm13 0h1v1h-1zm1 0h1v1h-1z" shape-rendering="crispEdges" style="fill:#fbfbfb;opacity:255"/><path d="M18 9h1v1h-1zm1 0h1v1h-1zM0 10h1v1H0zm1 0h1v1H1z" shape-rendering="crispEdges" style="fill:#000;opacity:255"/><path d="M2 10h1v1H2zm1 0h1v1H3zm13 0h1v1h-1zm1 0h1v1h-1z" shape-rendering="crispEdges" style="fill:#fbfbfb;opacity:255"/><path d="M18 10h1v1h-1zm1 0h1v1h-1zM0 11h1v1H0zm1 0h1v1H1z" shape-rendering="crispEdges" style="fill:#000;opacity:255"/><path d="M2 11h1v1H2zm1 0h1v1H3zm13 0h1v1h-1zm1 0h1v1h-1z" shape-rendering="crispEdges" style="fill:#fbfbfb;opacity:255"/><path d="M18 11h1v1h-1zm1 0h1v1h-1zM0 12h1v1H0zm1 0h1v1H1zm1 0h1v1H2zm1 0h1v1H3z" shape-rendering="crispEdges" style="fill:#000;opacity:255"/><path d="M4 12h1v1H4zm1 0h1v1H5zm9 0h1v1h-1zm1 0h1v1h-1z" shape-rendering="crispEdges" style="fill:#fbfbfb;opacity:255"/><path d="M16 12h1v1h-1zm1 0h1v1h-1zm1 0h1v1h-1zm1 0h1v1h-1zM0 13h1v1H0zm1 0h1v1H1zm1 0h1v1H2zm1 0h1v1H3z" shape-rendering="crispEdges" style="fill:#000;opacity:255"/><path d="M4 13h1v1H4zm1 0h1v1H5zm9 0h1v1h-1zm1 0h1v1h-1z" shape-rendering="crispEdges" style="fill:#fbfbfb;opacity:255"/><path d="M16 13h1v1h-1zm1 0h1v1h-1zm1 0h1v1h-1zm1 0h1v1h-1zM0 14h1v1H0zm1 0h1v1H1zm1 0h1v1H2zm1 0h1v1H3zm1 0h1v1H4zm1 0h1v1H5z" shape-rendering="crispEdges" style="fill:#000;opacity:255"/><path d="M6 14h1v1H6zm1 0h1v1H7zm5 0h1v1h-1zm1 0h1v1h-1z" shape-rendering="crispEdges" style="fill:#fbfbfb;opacity:255"/><path d="M14 14h1v1h-1zm1 0h1v1h-1zm1 0h1v1h-1zm1 0h1v1h-1zm1 0h1v1h-1zm1 0h1v1h-1zM0 15h1v1H0zm1 0h1v1H1zm1 0h1v1H2zm1 0h1v1H3zm1 0h1v1H4zm1 0h1v1H5z" shape-rendering="crispEdges" style="fill:#000;opacity:255"/><path d="M6 15h1v1H6zm1 0h1v1H7zm5 0h1v1h-1zm1 0h1v1h-1z" shape-rendering="crispEdges" style="fill:#fbfbfb;opacity:255"/><path d="M14 15h1v1h-1zm1 0h1v1h-1zm1 0h1v1h-1zm1 0h1v1h-1zm1 0h1v1h-1zm1 0h1v1h-1zM0 16h1v1H0zm1 0h1v1H1zm1 0h1v1H2zm1 0h1v1H3zm1 0h1v1H4zm1 0h1v1H5zm1 0h1v1H6zm1 0h1v1H7z" shape-rendering="crispEdges" style="fill:#000;opacity:255"/><path d="M8 16h1v1H8zm1 0h1v1H9zm1 0h1v1h-1zm1 0h1v1h-1z" shape-rendering="crispEdges" style="fill:#fbfbfb;opacity:255"/><path d="M12 16h1v1h-1zm1 0h1v1h-1zm1 0h1v1h-1zm1 0h1v1h-1zm1 0h1v1h-1zm1 0h1v1h-1zm1 0h1v1h-1zm1 0h1v1h-1zM0 17h1v1H0zm1 0h1v1H1zm1 0h1v1H2zm1 0h1v1H3zm1 0h1v1H4zm1 0h1v1H5zm1 0h1v1H6zm1 0h1v1H7z" shape-rendering="crispEdges" style="fill:#000;opacity:255"/><path d="M8 17h1v1H8zm1 0h1v1H9zm1 0h1v1h-1zm1 0h1v1h-1z" shape-rendering="crispEdges" style="fill:#fbfbfb;opacity:255"/><path d="M12 17h1v1h-1zm1 0h1v1h-1zm1 0h1v1h-1zm1 0h1v1h-1zm1 0h1v1h-1zm1 0h1v1h-1zm1 0h1v1h-1zm1 0h1v1h-1zM0 18h1v1H0zm1 0h1v1H1zm1 0h1v1H2zm1 0h1v1H3zm1 0h1v1H4zm1 0h1v1H5zm1 0h1v1H6zm1 0h1v1H7zm1 0h1v1H8zm1 0h1v1H9zm1 0h1v1h-1zm1 0h1v1h-1zm1 0h1v1h-1zm1 0h1v1h-1zm1 0h1v1h-1zm1 0h1v1h-1zm1 0h1v1h-1zm1 0h1v1h-1zm1 0h1v1h-1zm1 0h1v1h-1zM0 19h1v1H0zm1 0h1v1H1zm1 0h1v1H2zm1 0h1v1H3zm1 0h1v1H4zm1 0h1v1H5zm1 0h1v1H6zm1 0h1v1H7zm1 0h1v1H8zm1 0h1v1H9zm1 0h1v1h-1zm1 0h1v1h-1zm1 0h1v1h-1zm1 0h1v1h-1zm1 0h1v1h-1zm1 0h1v1h-1zm1 0h1v1h-1zm1 0h1v1h-1zm1 0h1v1h-1zm1 0h1v1h-1z" shape-rendering="crispEdges" style="fill:#000;opacity:255"/></svg>