<svg xmlns="http://www.w3.org/2000/svg" width="12" height="16" viewBox="0 0 12 16"><path d="M0 0h1v1H0zm1 0h1v1H1zm1 0h1v1H2zm1 0h1v1H3z" shape-rendering="crispEdges" style="fill:#000;opacity:255"/><path d="M4 0h1v1H4zm1 0h1v1H5zm1 0h1v1H6zm1 0h1v1H7zm1 0h1v1H8zm1 0h1v1H9zm1 0h1v1h-1zm1 0h1v1h-1z" shape-rendering="crispEdges" style="fill:#545454;opacity:255"/><path d="M0 1h1v1H0zm1 0h1v1H1zm1 0h1v1H2zm1 0h1v1H3z" shape-rendering="crispEdges" style="fill:#000;opacity:255"/><path d="M4 1h1v1H4zm1 0h1v1H5zm1 0h1v1H6zm1 0h1v1H7zm1 0h1v1H8zm1 0h1v1H9zm1 0h1v1h-1zm1 0h1v1h-1z" shape-rendering="crispEdges" style="fill:#545454;opacity:255"/><path d="M0 2h1v1H0zm1 0h1v1H1z" shape-rendering="crispEdges" style="fill:#000;opacity:255"/><path d="M2 2h1v1H2zm1 0h1v1H3zm7 0h1v1h-1zm1 0h1v1h-1z" shape-rendering="crispEdges" style="fill:#545454;opacity:255"/><path d="M0 3h1v1H0zm1 0h1v1H1z" shape-rendering="crispEdges" style="fill:#000;opacity:255"/><path d="M2 3h1v1H2zm1 0h1v1H3zm7 0h1v1h-1zm1 0h1v1h-1zM0 4h1v1H0zm1 0h1v1H1zm9 0h1v1h-1zm1 0h1v1h-1zM0 5h1v1H0zm1 0h1v1H1zm9 0h1v1h-1zm1 0h1v1h-1zM0 6h1v1H0zm1 0h1v1H1zm9 0h1v1h-1zm1 0h1v1h-1zM0 7h1v1H0zm1 0h1v1H1zm9 0h1v1h-1zm1 0h1v1h-1zM0 8h1v1H0zm1 0h1v1H1zm9 0h1v1h-1zm1 0h1v1h-1zM0 9h1v1H0zm1 0h1v1H1zm9 0h1v1h-1zm1 0h1v1h-1zM0 10h1v1H0zm1 0h1v1H1zm9 0h1v1h-1zm1 0h1v1h-1zM0 11h1v1H0zm1 0h1v1H1zm9 0h1v1h-1zm1 0h1v1h-1zM0 12h1v1H0zm1 0h1v1H1zm7 0h1v1H8zm1 0h1v1H9z" shape-rendering="crispEdges" style="fill:#545454;opacity:255"/><path d="M10 12h1v1h-1zm1 0h1v1h-1z" shape-rendering="crispEdges" style="fill:#000;opacity:255"/><path d="M0 13h1v1H0zm1 0h1v1H1zm7 0h1v1H8zm1 0h1v1H9z" shape-rendering="crispEdges" style="fill:#545454;opacity:255"/><path d="M10 13h1v1h-1zm1 0h1v1h-1z" shape-rendering="crispEdges" style="fill:#000;opacity:255"/><path d="M0 14h1v1H0zm1 0h1v1H1zm1 0h1v1H2zm1 0h1v1H3zm1 0h1v1H4zm1 0h1v1H5zm1 0h1v1H6zm1 0h1v1H7z" shape-rendering="crispEdges" style="fill:#545454;opacity:255"/><path d="M8 14h1v1H8zm1 0h1v1H9zm1 0h1v1h-1zm1 0h1v1h-1z" shape-rendering="crispEdges" style="fill:#000;opacity:255"/><path d="M0 15h1v1H0zm1 0h1v1H1zm1 0h1v1H2zm1 0h1v1H3zm1 0h1v1H4zm1 0h1v1H5zm1 0h1v1H6zm1 0h1v1H7z" shape-rendering="crispEdges" style="fill:#545454;opacity:255"/><path d="M8 15h1v1H8zm1 0h1v1H9zm1 0h1v1h-1zm1 0h1v1h-1z" shape-rendering="crispEdges" style="fill:#000;opacity:255"/></svg>