<svg xmlns="http://www.w3.org/2000/svg" width="4" height="30" viewBox="0 0 4 30"><path d="M0 0h1v1H0zm1 0h1v1H1zm1 0h1v1H2zm1 0h1v1H3zM0 1h1v1H0zm1 0h1v1H1zm1 0h1v1H2zm1 0h1v1H3zM0 2h1v1H0zm1 0h1v1H1z" shape-rendering="crispEdges" style="fill:#9d9d9d;opacity:255"/><path d="M2 2h1v1H2zm1 0h1v1H3z" shape-rendering="crispEdges" style="fill:#8a8a8a;opacity:255"/><path d="M0 3h1v1H0zm1 0h1v1H1z" shape-rendering="crispEdges" style="fill:#9d9d9d;opacity:255"/><path d="M2 3h1v1H2zm1 0h1v1H3zM0 4h1v1H0zm1 0h1v1H1z" shape-rendering="crispEdges" style="fill:#8a8a8a;opacity:255"/><path d="M2 4h1v1H2zm1 0h1v1H3z" shape-rendering="crispEdges" style="fill:#9d9d9d;opacity:255"/><path d="M0 5h1v1H0zm1 0h1v1H1z" shape-rendering="crispEdges" style="fill:#8a8a8a;opacity:255"/><path d="M2 5h1v1H2zm1 0h1v1H3z" shape-rendering="crispEdges" style="fill:#9d9d9d;opacity:255"/><path d="M0 6h1v1H0zm1 0h1v1H1zm1 0h1v1H2zm1 0h1v1H3zM0 7h1v1H0zm1 0h1v1H1zm1 0h1v1H2zm1 0h1v1H3zM0 8h1v1H0zm1 0h1v1H1z" shape-rendering="crispEdges" style="fill:#8a8a8a;opacity:255"/><path d="M2 8h1v1H2zm1 0h1v1H3z" shape-rendering="crispEdges" style="fill:#838383;opacity:255"/><path d="M0 9h1v1H0zm1 0h1v1H1z" shape-rendering="crispEdges" style="fill:#8a8a8a;opacity:255"/><path d="M2 9h1v1H2zm1 0h1v1H3zm-3 1h1v1H0zm1 0h1v1H1z" shape-rendering="crispEdges" style="fill:#838383;opacity:255"/><path d="M2 10h1v1H2zm1 0h1v1H3z" shape-rendering="crispEdges" style="fill:#8a8a8a;opacity:255"/><path d="M0 11h1v1H0zm1 0h1v1H1z" shape-rendering="crispEdges" style="fill:#838383;opacity:255"/><path d="M2 11h1v1H2zm1 0h1v1H3z" shape-rendering="crispEdges" style="fill:#8a8a8a;opacity:255"/><path d="M0 12h1v1H0zm1 0h1v1H1zm1 0h1v1H2zm1 0h1v1H3zm-3 1h1v1H0zm1 0h1v1H1zm1 0h1v1H2zm1 0h1v1H3zm-3 1h1v1H0zm1 0h1v1H1zm1 0h1v1H2zm1 0h1v1H3zm-3 1h1v1H0zm1 0h1v1H1zm1 0h1v1H2zm1 0h1v1H3z" shape-rendering="crispEdges" style="fill:#838383;opacity:255"/><path d="M0 16h1v1H0zm1 0h1v1H1z" shape-rendering="crispEdges" style="fill:#7b7b7b;opacity:255"/><path d="M2 16h1v1H2zm1 0h1v1H3z" shape-rendering="crispEdges" style="fill:#838383;opacity:255"/><path d="M0 17h1v1H0zm1 0h1v1H1z" shape-rendering="crispEdges" style="fill:#7b7b7b;opacity:255"/><path d="M2 17h1v1H2zm1 0h1v1H3zm-3 1h1v1H0zm1 0h1v1H1z" shape-rendering="crispEdges" style="fill:#838383;opacity:255"/><path d="M2 18h1v1H2zm1 0h1v1H3z" shape-rendering="crispEdges" style="fill:#7b7b7b;opacity:255"/><path d="M0 19h1v1H0zm1 0h1v1H1z" shape-rendering="crispEdges" style="fill:#838383;opacity:255"/><path d="M2 19h1v1H2zm1 0h1v1H3zm-3 1h1v1H0zm1 0h1v1H1zm1 0h1v1H2zm1 0h1v1H3zm-3 1h1v1H0zm1 0h1v1H1zm1 0h1v1H2zm1 0h1v1H3zm-3 1h1v1H0zm1 0h1v1H1zm1 0h1v1H2zm1 0h1v1H3zm-3 1h1v1H0zm1 0h1v1H1zm1 0h1v1H2zm1 0h1v1H3zm-3 1h1v1H0zm1 0h1v1H1zm1 0h1v1H2zm1 0h1v1H3zm-3 1h1v1H0zm1 0h1v1H1zm1 0h1v1H2zm1 0h1v1H3zm-3 1h1v1H0zm1 0h1v1H1zm1 0h1v1H2zm1 0h1v1H3zm-3 1h1v1H0zm1 0h1v1H1zm1 0h1v1H2zm1 0h1v1H3zm-3 1h1v1H0zm1 0h1v1H1zm1 0h1v1H2zm1 0h1v1H3zm-3 1h1v1H0zm1 0h1v1H1zm1 0h1v1H2zm1 0h1v1H3z" shape-rendering="crispEdges" style="fill:#7b7b7b;opacity:255"/></svg>